<svg id="Capa_1" enable-background="new 0 0 512 512" height="512" viewBox="0 0 512 512" width="512" xmlns="http://www.w3.org/2000/svg"><g><path d="m291.071 305.437c-3.375 2.402-4.163 7.085-1.761 10.459 2.402 3.375 7.085 4.163 10.459 1.762 19.955-14.202 31.868-37.252 31.868-61.657 0-41.706-33.931-75.637-75.637-75.637s-75.637 33.93-75.637 75.636 33.931 75.637 75.637 75.637c4.441 0 8.893-.39 13.231-1.159 4.078-.723 6.798-4.615 6.075-8.694-.723-4.078-4.616-6.795-8.694-6.075-3.476.616-7.046.929-10.612.929-33.436 0-60.637-27.201-60.637-60.637s27.202-60.637 60.637-60.637 60.637 27.201 60.637 60.637c0 19.561-9.557 38.042-25.566 49.436z"/><path d="m256 150.303c-7.908 0-15.796.878-23.443 2.61-4.04.914-6.573 4.931-5.658 8.971.915 4.039 4.93 6.577 8.972 5.658 6.562-1.485 13.334-2.239 20.13-2.239 50.011 0 90.698 40.687 90.698 90.697s-40.688 90.697-90.699 90.697-90.697-40.686-90.697-90.697c0-32.209 17.321-62.281 45.205-78.482 3.581-2.08 4.798-6.671 2.717-10.252-2.082-3.583-6.672-4.801-10.253-2.717-32.487 18.875-52.668 53.918-52.668 91.451 0 58.281 47.416 105.697 105.697 105.697s105.697-47.416 105.697-105.697-47.416-105.697-105.698-105.697z"/><path d="m238.162 96.853c-3.224-2.601-7.946-2.094-10.546 1.132-2.6 3.225-2.093 7.946 1.132 10.546l21.933 17.682c2.758 2.316 6.921 2.303 9.666-.027l21.034-17.765c3.165-2.672 3.563-7.404.891-10.568-2.673-3.166-7.404-3.563-10.569-.891l-8.703 7.35v-46.662c12.76-3.146 22.252-14.682 22.252-28.398-.001-16.13-13.123-29.252-29.252-29.252s-29.251 13.122-29.251 29.252c0 13.355 9 24.64 21.25 28.129v47.402zm3.587-67.601c0-7.858 6.393-14.252 14.251-14.252s14.251 6.394 14.251 14.252-6.393 14.251-14.251 14.251-14.251-6.393-14.251-14.251z"/><path d="m344.013 160.474c.319 3.611 3.266 6.466 6.842 6.806l27.445 2.313c.214.018.427.026.638.026 3.857 0 7.136-2.957 7.465-6.87.348-4.128-2.716-7.756-6.844-8.104l-11.351-.957 32.987-32.986c4.52 2.745 9.716 4.213 15.139 4.213 7.813 0 15.159-3.043 20.684-8.567 5.525-5.525 8.568-12.871 8.568-20.684s-3.043-15.159-8.567-20.684c-5.525-5.525-12.871-8.568-20.684-8.568s-15.159 3.043-20.684 8.567c-9.444 9.444-11.06 23.788-4.864 34.917l-33.518 33.518-1.349-12.564c-.442-4.118-4.137-7.097-8.257-6.656-4.119.441-7.099 4.139-6.657 8.257zm62.245-74.887c2.692-2.691 6.271-4.174 10.078-4.174s7.385 1.482 10.077 4.175c2.692 2.691 4.174 6.271 4.174 10.077s-1.482 7.385-4.174 10.076v.001c-2.691 2.691-6.27 4.174-10.077 4.174s-7.386-1.482-10.078-4.175c-5.557-5.555-5.557-14.597 0-20.154z"/><path d="m482.749 226.748c-13.355 0-24.64 9-28.13 21.251h-47.401l7.93-9.837c2.6-3.225 2.093-7.946-1.132-10.546s-7.946-2.092-10.546 1.132l-17.686 21.938c-2.319 2.766-2.281 6.896.023 9.652l17.771 21.042c1.484 1.757 3.602 2.661 5.734 2.661 1.709 0 3.428-.581 4.835-1.771 3.165-2.672 3.563-7.404.891-10.568l-7.35-8.703h46.661c3.146 12.76 14.682 22.253 28.399 22.253 16.13 0 29.252-13.122 29.252-29.252s-13.122-29.252-29.251-29.252zm0 43.504c-7.858 0-14.251-6.394-14.251-14.252s6.393-14.252 14.251-14.252 14.251 6.394 14.251 14.252-6.393 14.252-14.251 14.252z"/><path d="m416.335 387.084c-5.068 0-9.936 1.288-14.241 3.695l-33.51-33.51 12.563-1.348c4.119-.441 7.099-4.139 6.657-8.257-.441-4.119-4.148-7.104-8.257-6.657l-28.03 3.007c-3.682.332-6.352 3.267-6.799 6.841l-2.313 27.446c-.348 4.128 2.716 7.756 6.844 8.104.214.018.427.026.638.026 3.857 0 7.135-2.957 7.465-6.87l.957-11.352 32.994 32.995c-6.798 11.247-5.353 26.116 4.346 35.815 5.525 5.525 12.871 8.568 20.684 8.568s15.159-3.043 20.684-8.567c5.525-5.525 8.568-12.871 8.568-20.685 0-7.813-3.043-15.158-8.567-20.683-5.523-5.525-12.869-8.568-20.683-8.568zm10.077 39.329c-2.691 2.691-6.27 4.174-10.077 4.174s-7.386-1.482-10.078-4.174v-.001c-5.557-5.556-5.557-14.598 0-20.154 2.692-2.691 6.271-4.174 10.078-4.174s7.385 1.482 10.077 4.175c2.692 2.691 4.174 6.271 4.174 10.076.001 3.807-1.482 7.386-4.174 10.078z"/><path d="m273.838 415.147c1.387 1.118 3.05 1.661 4.703 1.661 2.19 0 4.362-.955 5.843-2.793 2.6-3.225 2.093-7.946-1.132-10.546l-21.933-17.682c-2.758-2.316-6.922-2.301-9.666.027l-21.034 17.765c-3.165 2.672-3.563 7.404-.891 10.568 2.673 3.165 7.404 3.564 10.569.891l8.703-7.35v46.662c-12.76 3.146-22.252 14.682-22.252 28.398 0 16.13 13.122 29.252 29.251 29.252s29.251-13.122 29.251-29.252c0-13.355-9-24.64-21.25-28.129v-47.402zm-3.587 67.601c0 7.858-6.393 14.252-14.251 14.252s-14.251-6.394-14.251-14.252 6.393-14.251 14.251-14.251 14.251 6.393 14.251 14.251z"/><path d="m167.987 351.526c-.28-3.164-2.615-5.858-5.691-6.613-.151-.037-.303-.073-.456-.1-.063-.011-.129-.018-.193-.028-.162-.025-.324-.049-.488-.063-.005 0-.01-.001-.015-.002l-27.445-2.313c-4.134-.332-7.755 2.717-8.104 6.844-.348 4.128 2.716 7.756 6.844 8.104l11.351.957-32.987 32.986c-4.52-2.745-9.716-4.213-15.139-4.213-7.813 0-15.159 3.043-20.684 8.567-5.525 5.525-8.568 12.871-8.568 20.684s3.043 15.159 8.567 20.684c5.525 5.525 12.871 8.568 20.684 8.568s15.159-3.043 20.684-8.567c9.444-9.444 11.06-23.788 4.864-34.917l33.518-33.518 1.349 12.564c.413 3.847 3.665 6.7 7.448 6.7.267 0 .538-.015.81-.044 4.119-.441 7.099-4.139 6.657-8.257zm-62.245 74.887c-2.692 2.691-6.271 4.174-10.078 4.174s-7.385-1.482-10.077-4.175c-2.692-2.691-4.174-6.271-4.174-10.077s1.482-7.385 4.174-10.076v-.001c2.691-2.691 6.27-4.174 10.077-4.174s7.386 1.482 10.078 4.175c5.557 5.555 5.557 14.597 0 20.154z"/><path d="m104.783 264.001-7.93 9.837c-2.6 3.225-2.093 7.946 1.132 10.546 1.387 1.118 3.05 1.661 4.702 1.661 2.19 0 4.362-.955 5.844-2.793l17.686-21.938c2.319-2.766 2.281-6.896-.023-9.652l-17.771-21.042c-2.673-3.165-7.405-3.563-10.569-.891-3.165 2.672-3.563 7.404-.891 10.568l7.35 8.703h-46.662c-3.146-12.76-14.682-22.253-28.399-22.253-16.13.001-29.252 13.123-29.252 29.253s13.122 29.252 29.251 29.252c13.355 0 24.64-9 28.13-21.251zm-75.532 6.251c-7.858 0-14.251-6.394-14.251-14.252s6.393-14.252 14.251-14.252 14.252 6.394 14.252 14.252-6.393 14.252-14.252 14.252z"/><path d="m95.665 124.916c5.068 0 9.936-1.288 14.241-3.695l33.51 33.51-12.563 1.348c-4.119.441-7.099 4.139-6.657 8.257.413 3.847 3.665 6.701 7.448 6.701.268 0 .538-.015.809-.044l28.022-3.006c3.688-.326 6.359-3.267 6.806-6.841l2.313-27.446c.348-4.128-2.716-7.756-6.844-8.104-4.135-.342-7.755 2.717-8.104 6.844l-.957 11.352-32.994-32.995c6.798-11.247 5.353-26.116-4.346-35.815-5.525-5.525-12.871-8.568-20.684-8.568s-15.159 3.043-20.684 8.567c-5.525 5.525-8.568 12.871-8.568 20.685 0 7.813 3.043 15.158 8.567 20.683 5.525 5.524 12.871 8.567 20.685 8.567zm-10.077-39.329c2.691-2.691 6.27-4.174 10.077-4.174s7.386 1.482 10.078 4.174v.001c5.557 5.556 5.557 14.598 0 20.154-2.692 2.691-6.271 4.174-10.078 4.174s-7.385-1.482-10.077-4.175c-2.692-2.691-4.174-6.271-4.174-10.076-.001-3.807 1.482-7.386 4.174-10.078z"/></g></svg>