<svg xmlns="http://www.w3.org/2000/svg" xmlns:xlink="http://www.w3.org/1999/xlink" viewBox="0 0 93.2 81.39"><defs><style>.cls-1{fill:#fff;}.cls-2{mask:url(#mask);}.cls-3{fill:#007c2a;}</style><mask id="mask" x="-18.56" y="-26.19" width="140.13" height="130.49" maskUnits="userSpaceOnUse"><rect class="cls-1" x="-6.22" y="-11.36" width="115.45" height="100.83" transform="translate(-9.25 17) rotate(-17.22)"/><path d="M35.1,79.35c-.43-.25-.86-.37-.72-.93.53.07.77.46,1,.78,1.1-.71.4-.44,1.9,0a.68.68,0,0,1,.54.31c.08.12.38.1.62.16.2.52.42,1.06.64,1.62-.43.42-.72.68-.67.78a.24.24,0,0,1-.19.39c-.48,0-.61.34-.65.74,0,.06-.08.12-.11.16l-.89-.53c0-.6.54-.29.95-.33-.11-.4-.22-.75-.31-1.1s-.68-.17-.83-.49c-2.45,2.3-1.51,1.57-2.09,1.38a1.46,1.46,0,0,0-.51,0c-.7-1.11.38-1.07.25-1.8S33.9,79.92,35.1,79.35ZM34,81.22c.48.28.5.29,1,.14Zm4.2-.39c-.23.21-.45.44-.3.84Zm-2.75.3c.1-.16.15-.08-.31-.34C35,80.89,35,80.82,35.41,81.13Zm.73-1.83c-.16-.14-.07-.18-.41.21C35.84,79.62,35.76,79.66,36.14,79.3Z"/><path d="M26.5,79.87l.37-.45a4.93,4.93,0,0,0-.15-.91c-.37-1.14-1.31-.73,1.51-.67.13,0,.25-.16.43-.28l-.77-.69,1.46.37c-.06.19-.12.34-.17.48l.86.09c-.07-.23-.35-.57.18-.69.93,1.12,1,1.22.53,2.08l-.35-.4-.31.44a2.2,2.2,0,0,0-1.37-.77c-.15,1,0,.68-.62,1.39.45,0,.85-.15,1.08.31-.15.39-.36.75,0,1,.07,0,.05.23.07.36-.24,0-.45.14-.68-.34A2.27,2.27,0,0,0,26.5,79.87Z"/><path d="M105.5,70.53l-.33-.16c-.31.61-.31.61.12,1.24l-.34,1c-.14-.15-.31-.26-.38-.42-.34-.83-.6-1-1.35-.57.31-2.2,2.43-1.42,1-1.75l.21-.53,1.07.32c.14-.75.39-.93,1.27-.91.21.79.64,1.57.15,2.42-.1.17-.15.39-.48.29.13-.26-.08-.62.34-.79a.44.44,0,0,0,0-.38.39.39,0,0,0-.38,0c-.14.09-.23.27-.65,1a.47.47,0,0,1-.28-.68l.43-.18-.4-.52C105.52,70.15,105.51,70.34,105.5,70.53Z"/><path d="M68.06,62.45c.69-.91,1.8-1.14,2.74-1.69l.62.47c.08-.41.15-.72.22-1.08a1.1,1.1,0,0,1,.91.71l-.8.11.55.32c-.32.51-.78.14-1.3.28.81.55,1.24.65,0,1.31l-.78-.37c-.15.4-.29.76-.41,1.1-.35-.09-.69-.08-.88-.24s-.12-.49-.19-.78C68,62.41,68.05,62.42,68.06,62.45Z"/><path d="M30.41,80l-.16-.39c.61-.08.67,0,.46.93,1.16.17.81,0,1.59,1a.79.79,0,0,1,1.06-.45c0,.22,0,.44-.06.6L31,83l-.58-.37c0-.65.82.09.93-.52-.47.3-.53-.07-.66-.35l-.93-.17.41-.45-.92-.61Z"/><path d="M5.5,61.38c0,1.06.58.52.54,1.76,0,.79.26.39.44.82s.25.67.41,1.09l-1.15-.16c.1-.26.18-.45.28-.68-.56.09-.34.24-1-.74l-.44.32c-.25-.73-.49-1.41-.8-2.29C4.66,61.58,4.64,62.16,5.5,61.38Z"/><path d="M11.06,84.43c-.33,1.15-.33,1-.15,1.07l.24-.24c.27.06,0,.57.44.55.18,0,.38.23.61.38-.33.38-.4.7,0,1,.1.1.08.32.14.58-1-.1-1.28-1-1.94-1.39.81-.55-.14-.14-.72-3.61A3.86,3.86,0,0,1,11.06,84.43Z"/><path d="M8,4.13c-.25.34-.27.72-.68.81-.06,0-.1.21-.09.32.06.78.47.16-1.24,2l-.51-.18c0-.5-.64-1-.18-1.52.25.15.25.15.31.45a1.07,1.07,0,0,0,.92-1c0-.4.46-.67.39-1.15,0-.15.27-.36.53-.19A6.68,6.68,0,0,1,8,4.13Z"/><path d="M59.25,31.27c0-.2-.09-.41-.15-.73l-.45.44s-.09-.06-.1-.09c0-.33,0-.6.43-.67s.15-.57.58-.53c1.12.1,1.26.79,1.57,1.4a.39.39,0,0,1-.27.59c-.49.16-.93.58-1.53.32-.13-.05-.34.07-.51.11C58.56,31.63,59.05,31.54,59.25,31.27Zm.17-.76a.72.72,0,0,0,.81.19C59.36,30.29,59.52,30.3,59.42,30.51Z"/><path d="M93.89,27.61c0-.25-.07-.45-.13-.81-.32.48-.65.73-1.2.49,0-.28,0-.59.06-1,.51.17.72.27.78.18a.8.8,0,0,1,.66-.38c.23,0,.45-.47.62-.44a1.14,1.14,0,0,0,.84-.09c.81.53-.3.89.14,1.43A12.45,12.45,0,0,0,93.89,27.61Zm.79-1.44c-.22.19-.17.12-.08.31C94.83,26.32,94.83,26.39,94.68,26.17Z"/><path d="M40.36,87.91c-.47.79-.43.44-.1,1.56l.8,0c-.22.65-.76.54-1.19.86v-.79l-1-.07c.09-.47.3-.8.2-1.22,0-.19.23-.46.33-.63l-.43-1.26.43-.21c.27.35.22.77.47,1.37C39.9,87.71,40.17,87.79,40.36,87.91Z"/><path d="M71.62,21.49l1-.15.18-.66.52.5,1.22-.36c.11.28.15.52-.19.68-1.4.65-1.12.6-1.73,1.57l-.41-.62C71.55,23.28,71.6,23.4,71.62,21.49Z"/><path d="M64.19,74.21l.51-.35c.73.41.89,1,.42,1.6a2.55,2.55,0,0,0-.38-.29c-.53-.24-1.17-.24-1.52-.88-.12-.22-.6-.23-.92-.33.06-.26.12-.54.19-.87l1-.29C63.7,74.19,63.52,73.89,64.19,74.21Z"/><path d="M100.73,71c-.66.21-.83-.41-1.27-.48l-.14-.89c-.73-.16-.73-.16-.58-1.31.3,0,.79.23,1.71,1C100.54,69.89,100.64,70.47,100.73,71Z"/><path d="M98,45.81a2,2,0,0,0-.67.1,2,2,0,0,1-1.44.18,5.66,5.66,0,0,0-.58,0A1,1,0,0,1,95,46c.54-.67,1.89-1.12,2.44-.62.33.3,1.38.05,1.42.77a.91.91,0,0,1-.75,1C98.07,46.71,98.05,46.35,98,45.81Z"/><path d="M16.63.1c.45-1.53.27-1.06.76-1.77.67.34,0,.94.35,1.42l.82-.27v-.55l.58.15c0,.43-.08.82-.12,1.29C18.21.05,17.41.81,16.63.1Z"/><path d="M62,71.4c-.92-.17-.79-.09-.82-.29.7-.24,1-.85,1.35-1.56.18.55,0,1.17.63,1.35.07-.17.09-.39.2-.49s.33-.06.45-.07l.6-.78a.53.53,0,0,1,.25.83c-.31.23-.45.69-.92.71s-.37.68-1.19.23c0-.15.06-.3.08-.45C62.48,70.81,62.6,70.74,62,71.4Z"/><path d="M16.63,91.44c-1.17-.54-.48-2.06.93-1.43A.82.82,0,0,1,18,91,1.11,1.11,0,0,1,16.63,91.44Z"/><path d="M8.93,69.81c-.16-.45-.3-.81-.45-1.21L9,68.33c.14.31.29.58.68.29-.08-.35-.17-.71-.26-1.1,1.49,0,1.57,1.36.53,1.83C9.42,69.59,9.85,69.42,8.93,69.81Z"/><path d="M11.61,1.94c-.85.45-.76-.16-.76-1,.22-.51.58,0,.85-.14s.53-.23.78-.34c.5.81.08,1.36-.39,2Z"/><path d="M23.35,75.72l-.15-.93c.85-1.82.77-1.79,1-.66l.58-.93c.23.29.23.29-.27,1.92Z"/><path d="M1.9,15.11c-.91.15-1.13.28-1.09-.39A3.16,3.16,0,0,1,.7,13.59c0-.11.19-.3.28-.3,1.3.09,1.17.3,1.53.68C1.76,14.1,1.93,14.63,1.9,15.11Z"/><path d="M96.63,23.59c-.32.49-.32.49-1,.15l-.06.5c.73,0,.62,0,.7.16-1.13.77-.76.58-1.45.56l-.4-.77C95.16,23.18,95.16,23.18,96.63,23.59Z"/><path d="M97.9,25.8c-.19-.62-.19-.62.07-1L97.4,24c1,.21,1.28,1,1.8,1.46.3.28,0,.61-.24.92-.16-.38-.29-.71-.44-1.06-.51.29-.39.65-.27,1l-.8.68C97.11,26.49,97.11,26.49,97.9,25.8Z"/><path d="M86.26,49.85c.07-.47.17-.22-.78-.72-.44-.23,1.17-.73,2.6-.17-.46,2-.18,1.26-.63.86-.26-.23-.52-.39-.85-.1C86.48,49.82,86.24,49.81,86.26,49.85Z"/><path d="M3.22,1.24A1.61,1.61,0,0,1,4,2l.65-.7L4.11,1Z"/><path d="M93,59.65a1.18,1.18,0,0,1,.11,1.24c.21.67-.31.91-.7,1.31l-.66-.76a2.68,2.68,0,0,0,.77-.49,2.29,2.29,0,0,0,.17-.84L92,59.67l.44-.61s-.15-.11.52.43Z"/><path d="M25.32,77c.14-.06.36-.08.41-.18.37-.78.36-.78,1.05-.54l.63-.81.37.3c-.12.35-.42.49-.66.91a2.17,2.17,0,0,1-1.22.91.79.79,0,0,1-.59-.15C25.23,77.37,25.37,77,25.32,77Z"/><path d="M59.25,75.47l-.32-.64.58-.06c0-.11.05-.29.14-.36s.39-.1.42,0a2.27,2.27,0,0,1,.28.75c.12.76.11.76-.11,1.13l-.17-.55-.31.43c-.26-.31-.2-.31-.34-.09s-.14.31-.26.37-.57-.11-.27-.66C59,75.62,59.11,75.57,59.25,75.47Z"/><path d="M22.44,72.29c.29.63,1,1,.75,1.78-1.08-.23-1.34-.36-1.72-.08a.94.94,0,0,1-1.11-.09C21.4,73.83,21.84,73,22.44,72.29Zm-.37.65c.29.38.18.31.46.2C22.35,72.75,22.45,72.83,22.07,72.94Z"/><path d="M51.3,65.54c1.43.45-.2-.13-1,1.4l-1.2-.85c-.11.3-.19.48-.25.66-.1,0-.18,0-.2,0C48.15,65.79,49,66,50,66l.75-1,.55.53-.61,0C51,65.89,51.16,65.7,51.3,65.54Z"/><path d="M90.75,5.46c.75.35.65.35.56.12l1.17-.23c0,.71.42,0,.57.2.1.61-.41,1-1.11.83l-.59.68C91.22,6.49,90.63,6.21,90.75,5.46Z"/><path d="M8.22,78c0,.76-.16.54.68,1.08-1.29,2.16-1,2.08-1.83,1.33l1-.68c.1-.8-.94-.29-.88-.88Z"/><path d="M100.67,28.35l.45-.12c0,.54-.43,1.09.19,1.46l-.39.74a5.41,5.41,0,0,1-.68,0c-.09-.5-.88-.55-.72-1.22l.64.35S100.86,28.24,100.67,28.35Z"/><path d="M101,3.59a1.3,1.3,0,0,0-1.32.49c-.5.33-.5.38.12.82.51-.87.34-.68.67-.73l-.16.66c.33.17.51.63,1,.35-.15-.67-.2-.89-.12-1.12Z"/><path d="M98.56,55.86c-1.09-.44.22-.86-.44-1.5-1.17,1.25-.83,1.06-1.51,1-.07-.43.24-.25.42-.28,0-.17,0-.33,0-.49.37-.15.74-.43,1.08-.39a1.16,1.16,0,0,1,.76.68C99.11,55.39,100,54.63,98.56,55.86Z"/><path d="M74.42,50.56c.41-.07.79-.26,1-.14a.8.8,0,0,1,.2,1,4.55,4.55,0,0,1-2.1-.56,2.21,2.21,0,0,1,.14-.74C74,49.56,74.2,50.14,74.42,50.56Z"/><path d="M97.51,5c0-1.3.06-1.4-.67-1.3-.1,0-.22-.09-.4-.17.62-.37,1.06-1.11,1.89-.34-.25.58-.33,1.25-.58,1.87Z"/><path d="M76.85,33.4c1.7-1.1-.41-.08-.38-.81,0-.45.71-.67.9-.76,0,.5-.06.48.59.76s.5.88-.29,1A2.68,2.68,0,0,1,76.85,33.4Z"/><path d="M102,68.05c-.81-.45-1,1-1.57.42s.59-1.35,2.15-1.31h0c.18.54-.44.57-.59.9Z"/><path d="M88,48.47a8.46,8.46,0,0,0,.28-1.66c1.14.46.78.85.47,1.35.61.42.52.21.37,1Z"/><path d="M100.15,28.6l-.58-.53c-.1-.36.19-1.06-.58-1.37.29-.36.59-.2.81-.17a4.31,4.31,0,0,1,.35.59,6.38,6.38,0,0,0,.22.66c.11.19.47.24.3.57Z"/><path d="M53.74,78.47c-.88-.29-.87-.41-1.35-.25s-.64.08-.5-.6C53.76,77.47,54.31,77.25,53.74,78.47Z"/><path d="M53.85,62.05c.36-.29.62-.29.86,0l-1,1c-.46-1.17-.27-1-.82-1a2.33,2.33,0,0,1,0-.58c0-.14.13-.35.23-.37C53.54,60.94,53.66,61.56,53.85,62.05Z"/><path d="M.19,60.44c.39.08.39.08.62.56.56-.23.26-.32,1.37.49-.1,0-.26.18-.34.14a1.16,1.16,0,0,0-1.5.45C0,61.12.06,61.52.19,60.44Z"/><path d="M19.14.82c-.24,1.81,2.11,1.66.72,3.06C20,2.68,18.25,2.56,19.14.82Z"/><path d="M107.12,74.12c0-.69,0-.58.19-.64.4.72.17.57,1,.76h0c-.16-.77-.74-1-1.23-1.46-.6,1.14-.2.68-.62.51S106.09,74,107.12,74.12Z"/><path d="M93.77,52.94a3.28,3.28,0,0,1,.26-.73c.56-.87,1.32.06.92.68C94.72,53.23,94.44,53.23,93.77,52.94Z"/><path d="M38.08,66.55a2.68,2.68,0,0,1-.59-.51.69.69,0,0,0-.78-.38c0-.57.44-.68.78-.88a1.81,1.81,0,0,1,.76,1.65Z"/><path d="M88,2.41c.51.14.7.7,1.28.2-.07.33-.06.48-.13.56a9.4,9.4,0,0,1-1.18,1.08,1.72,1.72,0,0,0,0-1.12A2.29,2.29,0,0,1,88,2.41Z"/><path d="M22,72.14,21.28,72c-.33.38-.09.38-1.13-.11a.91.91,0,0,1,.06-.16c1.13.14,1.75-1.43,2.08-.81.05.09-.16.32-.25.48S21.91,71.35,22,72.14Z"/><path d="M49.09,30.44c.27.46.23.74-.15.78-.8.06-.36,1.15-.82.06l-1.24.52c-.2-.71.55-.55,1.19-.82C48.42,30.83,48.75,30.62,49.09,30.44Z"/><path d="M104.83,66.94a2.41,2.41,0,0,0-.26.33l-.52-.94,2-.37c.28.38-.19.41-.29.61C105.22,66.81,105.2,67.15,104.83,66.94Z"/><path d="M61.24,72.93c-.08-.34-.69-.41-.49-.86l1.12-.36c.1.48-.21,1.05.29,1.53-.87-.06-.55-.11-1.22.17C60.9,73.31,60.86,73.4,61.24,72.93Z"/><path d="M59.82,72.54c-.18-.37-.18-.37-.66-.35.12-.39-.16-.83.21-1.3.14.93.14.93.65.93l-.38-.55L60.86,71C60.1,72.72,59.72,72.4,59.82,72.54Z"/><path d="M14.16,61.43c.09.39.19.79.29,1.23l.37-.28c.06.27.12.52.19.82-.83-.05-.57.12-1.1-.87-.7.21-.66.38-.26-1C14.22,61.45,14.17,61.45,14.16,61.43Z"/><path d="M72.69,54l-.87-.54.69-.31c-.06-.18-.12-.36-.21-.65.56.29,1.17,0,1.63.51-.12,0-.2.12-.27.1a.44.44,0,0,0-.6.36C73,53.71,72.82,53.86,72.69,54Z"/><path d="M54.39,26.35c-.46.5-.77,1-1.08.78s-.13-.89-.12-1.31C53.6,25.67,53.93,25.79,54.39,26.35Z"/><path d="M9.76,7.29l1.33,1.33a2.26,2.26,0,0,1-.52.07C9,8.61,9.29,8.47,9.76,7.29Z"/><path d="M77.61,51c.74.67,1.1.6-.06,1.44-.53-.48-.53-.48-.14-1.06A2.9,2.9,0,0,0,77.61,51Z"/><path d="M108,32.26l-.8-.27c-.61-.95.87-1.37.89-.71A7.28,7.28,0,0,1,108,32.26Z"/><path d="M94.33,5.2,93.63,5c.07-.17.14-.33.22-.54.23.24.35.58.73.24a3.5,3.5,0,0,1,.87-.42c0,.46-.11.91-.73,1.06-.15,0-.27.25-.4.38C94.15,5.63,94.16,5.74,94.33,5.2Z"/><path d="M1.51,19.05l.65.19c-.16.55-.66.25-.89.49-1.57-2.64-.77-1.11,0-1.32C1.72,18.28,1.42,18.8,1.51,19.05Z"/><path d="M64.63,27.84l1-.58c-.85,2.57-.58,2-1.12,2.22C64.37,28.2,65.12,28.84,64.63,27.84Z"/><path d="M58.65,75.65c-.46-.16-.46-.16-.8-.76a1.5,1.5,0,0,1-.47.63c.12-.64-.45-1.17.14-1.77a1.61,1.61,0,0,0,.62.89C58.4,74.84,58.48,75.29,58.65,75.65Z"/><path d="M111.4,62.92c-.38,0-.46.66-.92.3l.63-.82c.51-.62,1.81.37.23,1Z"/><path d="M104.93,25.76a1.55,1.55,0,0,1-1.64-1.17,3.79,3.79,0,0,1,.4-.08c.17.63.71.5,1.21.57C104.91,25.29,104.92,25.49,104.93,25.76Z"/><path d="M42.64,61.24l-.83-.8.52-.77c.25.2.43.35.66.52C42.89,60.51,42.78,60.82,42.64,61.24Z"/><path d="M61.52,22.35c1.45.17,1,.32,2-.57l.17.1c-.15.59.11.26-.85,1.25C62.59,22.69,62,22.9,61.52,22.35Z"/><path d="M33.3,86.2c.74-1.14.36-.87,1.16-.59.29.11.35.27.13.46a1.16,1.16,0,0,1-1.22.34Z"/><path d="M2.71,31.13c-.16-.27-.25-.48.1-.75s.34-.58.57-1l.34.66c-.64,1.17-.44.84-.77,1.22Z"/><path d="M76.1,28.93l.58,1.14c-.64-.44-1.19.12-1.75.19C74.92,30.05,74.78,30.25,76.1,28.93Z"/><path d="M95.78,62.77c-.85-.33-1.15,0-1.43-1.19-.06-.23,0-.43.27-.42s.44.25.42.31c-.17.57.33.7.6,1C95.69,62.49,95.7,62.57,95.78,62.77Z"/><path d="M33.16,92.6c-.26.91-.55.71-1.84.14-.05,0,0-.17-.05-.27C32,92.08,32.45,92.81,33.16,92.6Z"/><path d="M57.76,72.38l.45.63c-.22.2-.75-.08-.62.68-.45-.51-1.11-.1-1.26-.89C57.13,73.17,57.53,72.48,57.76,72.38Z"/><path d="M-1.95,22.16c.11.27.21.5.33.81-.47-.15-.87.34-1.38,0C-2.56,22.08-2.81,22.25-1.95,22.16Z"/><path d="M62.83,60.14l.66-.49c.57.62.59.81.18,1.5C63.4,60.82,63.13,60.49,62.83,60.14Z"/><path d="M75,34.33c0,.72-.09,1.35-.14,2.05-.52-.14-.51-.68-.69-1.12Z"/><path d="M12.18-1.54c-.67.38-.47.31-1,.32L11-1.16l-.18.09c.81.05.34.57.58.82.65-.15.85-.43.84-1.3Z"/><path d="M87.49,54.09l-.83.38c-.27-.37-.5-.71-.78-1.1.18,0,.4-.12.43-.07C86.59,53.68,87.16,53.56,87.49,54.09Z"/><path d="M25.48,21.54l-.5,0c-.37-.4,0-.72.11-1s.32-.31.49-.47C25.77,20.17,25.76,19.94,25.48,21.54Z"/><path d="M94.08,46l.87.2c-.2.41-.35.73-.51,1.08C93.94,47,93.86,46.59,94.08,46Z"/><path d="M7.1,61.06c-.35-.54-.34-.55.35-.65.37.83.73.45-1.29,1.62C5.93,61.73,6.14,61.71,7.1,61.06Z"/><path d="M50.47,62.13c.11-.52.33-.73.75-.81.9-.17,1-.17,1.51.46C51.46,61.53,52,61.47,50.47,62.13Z"/><path d="M60.82,70.57l-1-.35c.81-.64.87-.79,1.13-.56A.54.54,0,0,1,60.82,70.57Z"/><path d="M47.64,74.29c.76,0,1.12.54,1.62.72-.1.4-.1.4-.5.52Z"/><path d="M102.55,23.88l-.47-1a10.19,10.19,0,0,1,1.08.14c.18.05.16.43,0,.56S102.78,23.75,102.55,23.88Z"/><path d="M60.4,29.17l-1.07.06c.19-.95.19-.95.54-1.15C60,28.39,60.17,28.71,60.4,29.17Z"/><path d="M101,18.16c0-.92.65-1.11,1-.8.09.08.15.31.09.38A3,3,0,0,1,101,18.16Z"/><path d="M57.61,66c.06-.34.12-.65.19-1,.5-.17.37.43.66.56-.6.42-.3.15-.09.49a1.07,1.07,0,0,1,.07.32C58.05,66.36,58.27,66.5,57.61,66Z"/><path d="M94,3.26c.41-.55.41-.55,1.25-.27l-.61.91C94.37,3.66,94.18,3.45,94,3.26Z"/><path d="M22.51,56.38c-.31-.42-.64-.69-.42-1s.51-.31.77-.46C23.13,55.46,22.67,55.79,22.51,56.38Z"/><path d="M18.36,52.32c.36-.28.27-.26.41-.14-.09.18-.19.35-.3.57-.36-.1-.74-.31-.94.26a.52.52,0,0,1,0-.82C17.81,52,18.05,52,18.36,52.32Z"/><path d="M-6.12,21l.5.44c.16-.36.3-.66.45-1,.44-.07.46.2.45.44l-.72.74C-6,21.57-6,21.57-6.12,21Z"/><path d="M61.08,74.13c.36-.75.2-.52.72-.75,0,.62.38,1.25-.54,1.53,0-.26.05-.45.07-.65C61.05,74.1,61.07,74.11,61.08,74.13Z"/><path d="M8.61,12.38l.29.79c-.25.16-.62-.3-1.07-.47C9.17,12.05,9,12.14,8.61,12.38Z"/><path d="M-2.95,24.63c-.64-1.08-.78-1.07-.38-1.52C-2.9,23.7-2,24.6-2.95,24.63Z"/><path d="M74.88,6.21C75,6,74.32,5.65,75,5.4a1,1,0,0,1,.21,1.2c-.16.27-.28.52-.65.39C74.35,6.59,74.81,6.51,74.88,6.21Z"/><path d="M67.75,27.54c-.09-1.3-.22-1.51.36-1.61C68.12,26.61,68.27,28,67.75,27.54Z"/><path d="M62.09,74.78c.17.56.95.64.88,1.33-1-.36-.65-.18-1.13-.79C61.62,75.05,61.77,74.93,62.09,74.78Z"/><path d="M38.12,91c-.61-.48,0-1-.26-1.37.17-.1,0-.22,1.14.85C38.11,90.51,38.3,90.38,38.12,91Z"/><path d="M91.51-.94a3.89,3.89,0,0,1-.3.45.32.32,0,0,1-.27,0c-.77-1-.55-.85-.48-1.21Z"/><path d="M24.85-2.87c.37,0,.64.06.7.49-.13.21-.56.08-.57.45,0,0-.28.06-.33,0C24.24-2.36,25-2.92,24.85-2.87Z"/><path d="M12.5,86.17c.92.38.95.74.22,1.49C12.65,87.16,12.58,86.7,12.5,86.17Z"/><path d="M113.79,63.16c.08-.23.18-.49.37-1,.1.71.66.49,1,.82C114.34,63.55,114.65,63.49,113.79,63.16Z"/><path d="M92.65,30.06c.42-.65.54-.63,1.18.22C93.34,30.61,93,30.24,92.65,30.06Z"/><path d="M114.57,67.76c.15.82-.56.69-.65,1.26C112.49,66.47,113.66,68.92,114.57,67.76Z"/><path d="M97.29,28.62c-.5-.51-.42-.67.56-1.18C98.27,27.7,98.06,27.79,97.29,28.62Z"/><path d="M33.25,85l-.26-.3-.46.46c.06-.39.09-.63.13-1l1.28.07Z"/><path d="M85.09,40.09l-1-1.1c.28-.07.46-.18.57-.13C85.12,39.09,85.17,39.5,85.09,40.09Z"/><path d="M41.82,61.21c.26.7.26.7-.51,1.11C40.8,61.84,40.91,61.87,41.82,61.21Z"/><path d="M101.24,53.06,101,54.19l-1-.41Z"/><path d="M14.7,63.68c.11.83.93,1,1.39,1.51a1,1,0,0,1-1-.41C14.82,64.49,14.35,64.23,14.7,63.68Z"/><path d="M35.25,87c.11-.44-.51-.86,0-1.34l.65.22Z"/><path d="M4.85,78.51a1.66,1.66,0,0,1-1.34.67l.14.48a5.57,5.57,0,0,0,1.07-.5C5,79.05,5.06,78.88,4.85,78.51Z"/><path d="M2.69,61c.94,1,.94,1,.35,1.28,0-.07-.06,0,0-.28-.2-.13-.47-.2-.56-.37S2.61,61.24,2.69,61Z"/><path d="M16.65,62.52c.83.16.68.09.83.78l-.69.2C16.75,63.17,16.7,62.87,16.65,62.52Z"/><path d="M14.24-1.36c.55.24.7.47.52.75a.37.37,0,0,1-.58.1C13.77-.79,14-1,14.24-1.36Z"/><path d="M3,31.25c.1.4-.12.59-.5.71l-.53-.53C2.83,31.09,2.65,31.1,3,31.25Z"/><path d="M90,51.49c-.24-.36-.72-.46-.66-1C90.37,50.75,90.49,50.9,90,51.49Z"/><path d="M42.37,47.49l.88-.14.14.63C42.72,48.14,42.72,48.14,42.37,47.49Z"/><path d="M18.26,26.74c-.74.12-.76.12-1.1-.43C17.64,26,18,26.14,18.26,26.74Z"/><path d="M70.32,24.34l.89.42C71.41,25.85,70,24.93,70.32,24.34Z"/><path d="M109.16,49.14c-.52-.16-.7-.39-.5-.83l1.07,0C109.85,48.85,109,48.52,109.16,49.14Z"/><path d="M68,6.05a2.1,2.1,0,0,1,1.36-1c.12.12.09,0,.13.52l-.71,0C68.39,6.13,68.56,6,68,6.05Z"/><path d="M70.18,21.66c-.21.32-.39.61-.79.42-.24-.12-.21-.41.07-.87Z"/><path d="M17.94,3.16c-.19,1.25-.06,1-.57,1-.06-.3-.1-.56-.15-.85Z"/><path d="M88.87,1.23a.74.74,0,0,1-1.07.07c-.18-.15-.18-.15.08-.53Z"/><path d="M84.23,51.58c1.07,1,.81.65.85,1.43C83.83,51.83,84,52.16,84.23,51.58Z"/><path d="M93,59.65c0-.31-.08-.54-.56-.59,0,0,0,0,0-.34l1.25.08C93.35,59.14,93.36,59.53,93,59.65Z"/><path d="M24.87-2.88c-.8-1.08-.75-.84-.47-1.26l.85.74C24.81-2.81,24.84-2.87,24.87-2.88Z"/><path d="M68,52.6l.73-.52c.48.44.47.5-.12.93Z"/><path d="M45.07,45.38c0,.57-.41.55-.77.58,0-.31-.07-.58-.12-.93Z"/><path d="M38.54,76c-.22-.34-1,.07-.9-.71C38.62,75.18,38.81,75.33,38.54,76Z"/><path d="M70.94,21.56c0-.7-.2-1.25.51-1.15C71.55,21.64,70.87,21.42,70.94,21.56Z"/><path d="M97.06,5.51,96,5.09c.12-.75.69-.1,1-.41C97,5,97.05,5.2,97.06,5.51Z"/><path d="M108.17,68.55l.74.08c.3.69.3.69-.15.9Z"/><path d="M57.71,66.41c.19.3.33.62.76.5-.1.42-.1.42-.48.56C57.79,67.16,57.54,66.87,57.71,66.41Z"/><path d="M64.62,24.61l.59-.4c.36.49.36.49-.07,1Z"/><path d="M61.13,67.88c.61-.2.73.51,1.29.61L62,69Z"/><path d="M36.49,88.31l-.84,0C36.67,87,36.7,86.8,36.49,88.31Z"/><path d="M-4.6,45.35c.17,0,.27,0,.31,0s.61.2.42.55c-.08.14-.44.14-.73.22Z"/><path d="M73.18,28.65c.52-.16.84-.18,1.17.16l-.45.57Z"/><path d="M57.11,71.6c0-.13,0-.27-.06-.55l.87.61c-.19.88-.13.7-.22.75s-.55-.07-.32-.48C57.4,71.9,57.1,71.58,57.11,71.6Z"/><path d="M59.22,64.42c0-.21-.06-.46-.09-.72.38-.37,1,0,.68.7Z"/><path d="M95.79,29c0-.42-.07-.8.38-1C96.48,28.65,96.45,28.76,95.79,29Z"/><path d="M69.32,65.42c.26.43.18.61-.41.94C68.42,65.91,68.54,66,69.32,65.42Z"/><path d="M96.77,26.56a1.92,1.92,0,0,1-.07.4c-.22,0-.29-.54-1,0,0,0,0,.09.54-1.22C96.5,25.7,96.3,26.41,96.77,26.56Z"/><path d="M90.58,48.63a1,1,0,0,1-.51,1.25C90.11,49.44,90,49,90.58,48.63Z"/><path d="M46,65.64c-.13-.25-.22-.41-.26-.51l.92-1.08c.33.4-.22.48-.28.74A4.39,4.39,0,0,1,46,65.64Z"/><path d="M79.75,42.21l-.74.45c-.06-.24-.11-.48-.17-.76C79.22,41.66,79.45,42,79.75,42.21Z"/><path d="M97.65,29.09c0-.21,0-.43.09-.7l.86.14C97.68,29.47,97.88,29.39,97.65,29.09Z"/><path d="M47,64c.33.49.57.84.87,1.3A1,1,0,0,1,47,64Z"/><path d="M62.31,61.92c-.3.19-.3.19-1.08-.27C61.4,61.53,61.69,61.07,62.31,61.92Z"/><path d="M55,31.29c0-.15.1-.3.16-.46l1,.16C55.86,31.33,55.68,31.38,55,31.29Z"/><path d="M41,92l-.59,0c.16-.41-.34-.81.11-1.22C40.64,91.19,40.79,91.54,41,92Z"/><path d="M106.43,72.35c.45-.45.45-.45,1-.17C107.05,72.61,107,72.62,106.43,72.35Z"/><path d="M80,43.07l.19.58a.92.92,0,0,1-1.1-.18Z"/><path d="M40.29,79.82c-.09.17-.17.35-.28.58l-.75-.24C39.45,79.58,40,80.08,40.29,79.82Z"/><path d="M3,59.6c-.24.52-1,.14-1.16.83C1.86,59.69,2.31,59.41,3,59.6Z"/><path d="M54.26,37.43c0-.39,0-.74,0-1.13C55,36.94,55,37.11,54.26,37.43Z"/><path d="M106.87,50.59l.57.4c-.61.52-.4.41-.8.33Z"/><path d="M67.62,62.94c-.15-.19-.3-.36-.53-.63.4,0,.72-.3,1,.14C68,62.45,68.3,62.85,67.62,62.94Z"/><path d="M64.52,50.62a.62.62,0,0,1,.1.83c-.07.1-.24.12-.37.17C64.1,51.17,64,51.44,64.52,50.62Z"/><path d="M22.11-1c.43-.52.74,0,1.08,0,.09,0,.22.23.34.35C23.35-.52,23.58-.48,22.11-1Z"/><path d="M62.07,66.86l-.69-1.06C62.15,65.81,62.22,65.92,62.07,66.86Z"/><path d="M12.63,82.8c.2-.9,1-.23.84,0C13.2,83.31,13,82.88,12.63,82.8Z"/><path d="M37.61,6.68c-.33,0-.55.12-.68.05-.41-.24-.28-.92.33-.54C37.38,6.26,37.44,6.42,37.61,6.68Z"/><path d="M34.55,85.42c0-.31,0-.61.05-.94.23-.12.37,0,.41.2C35.08,85.1,35,85.26,34.55,85.42Z"/><path d="M100.17,31.13c-1-.07-.78.06-.93-.52C99.73,30.42,100,30.56,100.17,31.13Z"/><path d="M68.19,32.44c.32.37.13.8.59.9.16,0,.13.39-.14.59C68.43,33.48,68,33.15,68.19,32.44Z"/><path d="M27.84-1.57l.38.78c-.26.09-.48.2-.6-.09S27.39-1.41,27.84-1.57Z"/><path d="M53.35,41.29c-.4-.18-.75-.32-.57-.81C53.37,40.68,53.37,40.68,53.35,41.29Z"/><path d="M69.39,67.5c0-.57-.21-1,.34-1.38A1.28,1.28,0,0,1,69.39,67.5Z"/><path d="M58.5,68.38c.5.47.49.53-.07,1C58.16,69,58.27,68.73,58.5,68.38Z"/><path d="M28.48.88,29.06,0C29.77.05,29.18,1,28.48.88Z"/><path d="M108.11,67.56c.1.31.2,0-.34,1h-.09c-.34-.37-.38-.59-.16-.93,0,0-.07-.09.26.32C107.85,67.59,107.77,67.67,108.11,67.56Z"/><path d="M81.55-.43c-.25.71-.25.71-.89.35C80.78-.66,81.2-.18,81.55-.43Z"/><path d="M49.89,65.5l-.68-.1q.09-.34.18-.66C49.93,64.77,49.92,65.12,49.89,65.5Z"/><path d="M68.69,66.16c.27.25.15,0,.53.93C68.53,67.05,68.39,66.78,68.69,66.16Z"/><path d="M33.3,86.2l.07.21c-.1.55-.45.26-1,0C32.56,85.87,33,86.15,33.3,86.2Z"/><path d="M66.31,3.35c.53.36.53.36.38.91C66.3,4.09,66.23,3.8,66.31,3.35Z"/><path d="M98.17,67.71c0,.2,0,.39-.07.57-.47,0-.47,0-.77-.42Z"/><path d="M24.74-.34l-.29.82L24.13.19c.37-.28.12-.47-.2-.64C24.09-.58,24-.58,24.74-.34Z"/><path d="M71.81,16.16c.07.51.72.52.49,1.06C71.68,17,71.66,17,71.81,16.16Z"/><path d="M.07,59.46l.39.7-.84,0C-.49,59.71-.19,59.62.07,59.46Z"/><path d="M58.39,64l-.9,0c0-.3.17-.46.45-.45S58.43,63.55,58.39,64Z"/><path d="M67.39,60.14c0-.74.17-.54.92,0C68.21,60.29,68.37,60.26,67.39,60.14Z"/><path d="M61,75.28c.39.14.79.24.85.83C61.4,76,61,75.87,61,75.28Z"/><path d="M80.28,47.5c.27.29.14.08.5.77h-.94Z"/><path d="M41.57,46.46l.28-1.06C42.3,46,42.22,46.34,41.57,46.46Z"/><path d="M98.78,30.93l-.56.51c-.3-.34-.29-.16-.18-.69Z"/><path d="M59.33,72.72c.55-.2.5-.18.49-.19l.19.65-.53.29C59.32,72.68,59.31,72.73,59.33,72.72Z"/><path d="M112,61.25l.5-.5c.3.31.13.56,0,.9Z"/><path d="M59.49,49.76c-.11-.45-.09-.74.39-.86l.22.54Z"/><path d="M-1.36,62.43c.44-.3-.22-.68.32-1,.15.27.29.54.46.86Z"/><path d="M6.86,29.33c.45.31.3.85-.61.72Z"/><path d="M89.34,53.93c.36-.24.66-.28,1,0C90,54.37,90,54.37,89.34,53.93Z"/><path d="M93.29,25.36l-.86-.21c.44-.38.22-.29.85-.42Z"/><path d="M6.94,66.16c.15-.27.39-.36.59-.14s-.15.47-.22.86C6.89,66.1,6.94,66.22,6.94,66.16Z"/><path d="M66.81,20.78c.27.45.27.45-.22,1-.47-.46.11-.66.23-1Z"/><path d="M36.49,84.71c-.3.09-.5,0-.7-.33a1.79,1.79,0,0,1,1.1-.14A4.33,4.33,0,0,0,36.49,84.71Z"/><path d="M67.63,72.5c-.21-.14-.46-.19-.5-.62,0,0,.16-.16.22-.15.46.1.38.27.45.71Z"/><path d="M58.44,70.2a.93.93,0,0,1,.41,1.14c-.37.09-.37-.09-.33-.39A3.24,3.24,0,0,0,58.44,70.2Z"/><path d="M86.38,39.45c-.08-.32-.13-.49-.19-.77l1,.26Z"/><path d="M72.92,72.06a3.12,3.12,0,0,1,0,.7.66.66,0,0,1-.36.08C72.31,72.21,72.55,72.28,72.92,72.06Z"/><path d="M16.16,61c.45-.43.49-.44,1-.11a.71.71,0,0,1-1,.15Z"/><path d="M115.12,66.41l-.4.85-.43-.61Z"/><path d="M71.13,22.28a1.36,1.36,0,0,1-.74-1C71.08,21.64,70.89,21.37,71.13,22.28Z"/><path d="M96.7,27c.21.16.45.31.28.75l-.77-.52C96.69,26.93,96.57,27,96.7,27Z"/><path d="M94.64,56.72l.74.45c-.19.24,0,.16-.8.29C94.6,57.25,94.61,57.05,94.64,56.72Z"/><path d="M92.84,56.64l-.49-.34c.18-.53.64-.18.94-.32Z"/><path d="M33.15,24.66c-.3.18-.48.47-.74.16-.07-.08,0-.33.06-.42C32.78,24.1,32.91,24.41,33.15,24.66Z"/><path d="M65.18,21.13l.31.65C64.88,21.85,64.88,21.85,65.18,21.13Z"/><path d="M32.15,83.34l.65-1C33,83.7,32.08,83.16,32.15,83.34Z"/><path d="M66.06,67.07c-.64.09-.84-.27-1.11-.58C65.9,66.71,65.65,66.56,66.06,67.07Z"/><path d="M54.54,71.91c.25.41.19.79-.09.82-.08,0-.27-.2-.25-.25A2.82,2.82,0,0,1,54.54,71.91Z"/><path d="M79.87,48.45c.06.37.47.69.18,1.22A.94.94,0,0,1,79.87,48.45Z"/><path d="M-10.28,15.91c.77.05.79.08.55.7C-10.11,16.52-10,16.16-10.28,15.91Z"/><path d="M17.77-2.14c-.23.23-.46.31-.66,0S17.5-2.91,17.77-2.14Z"/><path d="M40.34,86.46c.23.16.63,0,.56.46a.31.31,0,0,1-.26.18C40.37,87,40.07,87,40.34,86.46Z"/><path d="M9.31,82.92l-.73-.43.58-.34C9.53,82.88,9.51,82.72,9.31,82.92Z"/><path d="M3.12,28.66c-.18-.62-.18-.62.37-1.07A1.26,1.26,0,0,1,3.12,28.66Z"/><path d="M90,62c-.42,0-.58.74-1.13.34C89.27,62.37,89.41,61.61,90,62Z"/><path d="M102.08,54.75c.44-.07.78-.28,1,.23C102.72,55.17,102.45,55,102.08,54.75Z"/><path d="M49.18,61.62c.06.35.09.57.13.82C48.64,62.24,48.62,62.17,49.18,61.62Z"/><path d="M61.81,87.12l.87.41C61.93,87.76,61.83,87.71,61.81,87.12Z"/><path d="M54.14,74.55l-.9-.37c.32-.3.63-.1,1,0Z"/><path d="M38.77,84.36c-.11-.33-.56-.62-.15-1.12A1.06,1.06,0,0,1,38.77,84.36Z"/><path d="M108.63,63.35l.71-.14c0,.27,0,.45,0,.71C108.53,63.49,108.64,63.6,108.63,63.35Z"/><path d="M77.62,50.94l-.47,0c.11-.74,0-.59.58-.74C77.59,51,77.6,51,77.62,50.94Z"/><path d="M87.41,29.34c-.66-.72-.72-.68.42-.5Z"/><path d="M116.08,64.83l-.88,0C115.35,64.41,115.51,64.37,116.08,64.83Z"/><path d="M100,54.69l-.55-.57.9-.16Z"/><path d="M105,43c-.33.4-.58.38-.88.07A.55.55,0,0,1,105,43Z"/><path d="M75.61,32.64c.32.4.38.65.15,1C75.26,33.4,75.48,33.1,75.61,32.64Z"/><path d="M26.54,0c.05.25.13.42.08.48a.52.52,0,0,1-.39.19C26.16.7,26,.42,26,.39A2.72,2.72,0,0,1,26.54,0Z"/><path d="M99.73,67.46l-.07.7c-.28.11-.43,0-.46-.22S99.33,67.5,99.73,67.46Z"/><path d="M70.84,5.21l.39.36C70.27,6.25,70.39,6.17,70.84,5.21Z"/><path d="M-.15,59.3c-.93.72-.78.65-.95.51C-1,59.6-1.07,59.16-.15,59.3Z"/><path d="M11.77,62.61c.53-.35.62-.29.79.59Z"/><path d="M73.7,18.34c-.39-.14-.34.14-.37.5-.64-.93-.62-.82.38-.69Z"/><path d="M94.46,31c.17,0,0-.08.59.08,0,.12,0,.28,0,.34C94.67,31.68,94.19,31.34,94.46,31Z"/><path d="M78.64,45c0,.38,0,.56,0,.87l-.81-.3Z"/><path d="M13.86,7.56c-.18-.25-.31-.4-.1-.63s.19-.42.51-.23Z"/><path d="M89.14,52.68c.3-.13.37-.76.89-.31C89.75,52.54,89.59,52.94,89.14,52.68Z"/><path d="M25.33,77c-.47-.19-.25-.61-.47-1,.47.08.66.21.56.57A2.48,2.48,0,0,0,25.33,77Z"/><path d="M84,40.63c-.41-.61-.41-.61,0-1.05C84,40,84.35,40.21,84,40.63Z"/><path d="M16.71,1.09c-.34-.12-.81,0-1-.55A1.39,1.39,0,0,1,16.71,1.09Z"/><path d="M93,11.76l-.19.65c-.16-.12-.33-.19-.35-.28C92.43,11.8,92.63,11.71,93,11.76Z"/><path d="M5.78,78.37h.63l-.17.8Z"/><path d="M64.53,71.48c.61-.23.57.26.79.48l-.45.11S64.91,72.16,64.53,71.48Z"/><path d="M93,64.5l.74-.12c.13.23.1.4-.13.48S93.2,64.84,93,64.5Z"/><path d="M31.51,57.09c-.21-.83.58-.62.56-.36S31.82,57.1,31.51,57.09Z"/><path d="M42,58.09c-.65-.13-.65-.13-.31-.88C41.83,57.54,41.9,57.76,42,58.09Z"/><path d="M36.3,67.1c.27-.09.47-.38.73-.11.08.08,0,.33-.06.51C36.37,67.38,36.55,67.5,36.3,67.1Z"/><path d="M86.73,28.27c-.44.09-.68.09-.78-.31C86.26,27.82,86.42,28,86.73,28.27Z"/><path d="M9.44,42.84c.25-.74.83-.21.67,0S9.7,43,9.44,42.84Z"/><path d="M36.42,64.28c-.24.14-.33.55-.88.42C35.91,64.49,36,64.08,36.42,64.28Z"/><path d="M71.14,2.39,70.55,3C70.43,2.42,70.43,2.42,71.14,2.39Z"/><path d="M60.76,25.64,60.43,25h.72C61.23,25.22,61.28,25.11,60.76,25.64Z"/><path d="M16.21,59.84c.34-.42.52.07.77.06C16.64,60.32,16.64,60.32,16.21,59.84Z"/><path d="M63.63,26.06c0-.21,0-.42,0-.7l.42.11C64,25.86,63.87,26.73,63.63,26.06Z"/><path d="M46,66.68c-.2-.43.25-.63.3-1C46.56,66.15,46.09,66.35,46,66.68Z"/><path d="M106.1,67.45c-.2.43-.55.4-1,.35C105.68,67,106.09,67.57,106.1,67.45Z"/><path d="M-3.13,57.24a.61.61,0,0,1,.37-.71C-2.64,57.1-2.64,57.1-3.13,57.24Z"/><path d="M44.17,39.55l-.47.51c-.1,0-.18-.07-.17-.08C43.59,39.35,43.54,39.52,44.17,39.55Z"/><path d="M57,74.9c-.65.54-.68.68-.36-.55C57,74.35,56.81,74.72,57,74.9Z"/><path d="M54.08,35.13c.32,0,.58,0,.62.31C54.71,35.62,54.2,35.92,54.08,35.13Z"/><path d="M71.41,28.48c-.08-.34-.2-.7.23-1C71.72,27.93,71.72,27.93,71.41,28.48Z"/><path d="M12.76,3.37l-.67-.54.63-.31C12.73,2.8,12.74,3,12.76,3.37Z"/><path d="M109.57,70c-.32.15-.52.34-.7.32s-.25-.27-.09-.48Z"/><path d="M42.43,62.38l.36-.78C43.18,62,43.13,62.07,42.43,62.38Z"/><path d="M106.77,67.47c-.13.17-.26.35-.49.68-.09-.35-.14-.52-.18-.69h0C106.84,67.48,106.78,67.49,106.77,67.47Z"/><path d="M-11.29,17.54c-.44,0-.63-.31-.87-.55C-12,16.81-12.15,16.73-11.29,17.54Z"/><path d="M20.94,1.67c.41.21.55.38.34.61-.05.06-.36,0-.36,0A2.47,2.47,0,0,1,20.94,1.67Z"/><path d="M20.25,69.19c-.9,0-.54-.58-.35-.57S20.32,68.84,20.25,69.19Z"/><path d="M.61,8.13,1,8.71C.38,8.78.38,8.78.61,8.13Z"/><path d="M8.28,60.5c.44.47.45.54.11,1C8,61.17,8.44,60.44,8.28,60.5Z"/><path d="M5.62.65c.18.33.07.52-.23.72C5.27,1,5.28.82,5.62.65Z"/><path d="M76.09,52.46c.82-.29.66.38.5.42C76.26,53,76.22,52.68,76.09,52.46Z"/><path d="M115.92,62.43a.61.61,0,0,1,.9.21C115.79,62.62,115.93,62.69,115.92,62.43Z"/><path d="M70.64,7.27c.23,1.06.24.89.06,1C70.39,7.74,70.12,7.49,70.64,7.27Z"/><path d="M60.8,66l-.54-.49.27-.41C61,66.11,61,65.94,60.8,66Z"/><path d="M8.78,4.22c-.24.06-.47.16-.49-.2S8.87,3.72,8.78,4.22Z"/><path d="M72.66,20.57c-.44.17-.58-.1-.78-.42C72.38,20.15,72.38,20.15,72.66,20.57Z"/><path d="M55,82.37c-.56.13-.41.26-.67-.33C54.77,81.86,54.61,81.75,55,82.37Z"/><path d="M44.06,37.37l-.62-.09.47-.68Z"/><path d="M17.93,59.58c.34.43.39.22-.14.81C17.61,60.26,17.61,60.39,17.93,59.58Z"/><path d="M107.72,71.77c0-.68,0-.68.66-.67Z"/><path d="M97.06,57.29c-.21-.59-.21-.59.39-.67Z"/><path d="M96,77.05c-.35.14-.56.12-.66-.25C95.59,76.65,95.8,76.66,96,77.05Z"/><path d="M-6.82,34.24c-.32.2-.56.26-.81-.06C-7.34,33.82-7.11,33.94-6.82,34.24Z"/><path d="M3.71,12.86l-.16-.08c-.07-.19-.26-.39,0-.57.05,0,.25,0,.25.06A4.46,4.46,0,0,1,3.71,12.86Z"/><path d="M57.26,16.11c.05-.22.1-.42.17-.66C57.83,16,57.82,16,57.26,16.11Z"/><path d="M23,1.84c0,.24,0,.38-.05.53L22.13,2Z"/><path d="M43.4,42.9l-.47-.52.61-.14C43.56,42.93,43.6,42.82,43.4,42.9Z"/><path d="M43,64l-.23-.89c.4.07.46.33.53.56C43.34,63.73,43.18,63.84,43,64Z"/><path d="M28.55-1c.33-.83.33-.83.77-.41Z"/><path d="M67.22,5c-.32.11-.21.21-.48-.37C67.05,4.42,66.94,4.35,67.22,5Z"/><path d="M14.3,10.61c0,.35,0,.56,0,.92-.21-.28-.54-.28-.41-.6C13.89,10.82,14.08,10.76,14.3,10.61Z"/><path d="M86.26,49.84l-.33.93-.24-.67C86.29,49.84,86.28,49.85,86.26,49.84Z"/><path d="M59.81,64.4c.55.23.4.12.48.49-.46,0-.36.18-.46-.5Z"/><path d="M44.48,46.78c0,.7,0,.7-.51.51C44.08,47.09,44.08,46.8,44.48,46.78Z"/><path d="M59.13,68.59,58.82,68c.4-.29.5.1.7.21C59.51,68.23,59.56,68.2,59.13,68.59Z"/><path d="M41,88.5l.84-.22C41.55,88.81,41.5,88.82,41,88.5Z"/><path d="M88,60.37c-.5.13-.79.15-.94-.3Z"/><path d="M4.52,28.76c-.78-.16-.62,0-.53-.57C4.24,28.18,4.13,28.09,4.52,28.76Z"/><path d="M94.64,49c0,.49-.31.49-.66.49C94.07,49.1,94.3,49,94.64,49Z"/><path d="M18.26,88.08c.21-.24.38-.57.81-.35C19,88.21,18.56,88,18.26,88.08Z"/><path d="M115.19,60.42c.4.11.64.23.58.68C115.47,61,115.2,60.9,115.19,60.42Z"/><path d="M35.08,50.54c.64,0,.47,0,.53.35C35.11,50.92,35.27,51,35.08,50.54Z"/><path d="M21.1,48.76c-.13.44-.29.52-.51.38-.06,0-.05-.19-.08-.3Z"/><path d="M81,51.23c-.5-.07-.5-.07-.51-.56C80.68,50.58,80.57,50.48,81,51.23Z"/><path d="M16,59.74c-.05.21-.09.41-.13.64C15.5,59.94,15.51,59.87,16,59.74Z"/><path d="M-2.1,17.23c-.61-.07-.61-.07-.53-.62C-2.45,16.81-2.33,17-2.1,17.23Z"/><path d="M3.87,61c-.46.29-.46.29-.78,0C3.16,60.78,3,60.8,3.87,61Z"/><path d="M50.22,41.25c-.41.51-.41.51-.83,0A7.14,7.14,0,0,1,50.22,41.25Z"/><path d="M25.59,54.26c0-.4-.11-.45.29-.75,0,0,.17.05.17.07C26,54.07,25.92,54,25.59,54.26Z"/><path d="M69.15,74.17c-.62-.22-.51-.06-.35-.63C69.33,74.05,69.26,73.92,69.15,74.17Z"/><path d="M63.44,75c.32,0,.46.16.25.63C63.21,75,63.25,75.17,63.44,75Z"/><path d="M78.63,43.26c-.1.35-.16.59-.26,1C78.15,43.6,78.15,43.6,78.63,43.26Z"/><path d="M71.32,84.94c-.42-.2-.73-.3-.61-.66C71,84.19,70.85,84.09,71.32,84.94Z"/><path d="M57.81,84.52c-.22-.15-.5-.29-.14-.74C58,84.58,58,84.44,57.81,84.52Z"/><path d="M-3.87,47.23c0,.58.19.45-.54.56C-4.45,47.62-4.53,47.72-3.87,47.23Z"/><path d="M20,1.51c.69,0,.58-.15.61.53C20.42,2.09,20.54,2.17,20,1.51Z"/><path d="M68.22,1.19,68.3,2C67.94,1.75,67.94,1.75,68.22,1.19Z"/><path d="M53,26.84c-.15.2-.26.33-.41.54-.1-.17-.2-.27-.19-.36C52.43,26.63,52.67,26.75,53,26.84Z"/><path d="M68.32,17c.32.37.25.55,0,.67,0,0-.23-.09-.22-.12A5.73,5.73,0,0,1,68.32,17Z"/><path d="M98,31.59c-.35.15-.59.17-.82-.17C97.48,31.2,97.7,31.31,98,31.59Z"/><path d="M56.2,62c-.67,0-.67,0-.53-.56Z"/><path d="M9.14,66.91a.71.71,0,0,1,.06.88C8.88,67.72,8.91,67.9,9.14,66.91Z"/><path d="M88,44l-.55,0c0-.32.06-.56.39-.59C87.77,43.4,87.77,43.37,88,44Z"/><path d="M74.41,73c-.47.55-.73,0-.58-.14S74.2,72.83,74.41,73Z"/><path d="M10.59,62.07c-.31,0-.33.47-.62.22A.25.25,0,0,1,9.92,62C10.06,61.75,10.26,61.85,10.59,62.07Z"/><path d="M62.85,72.13c.82,0,.62-.08.73.3-.37.11-.17.22-.74-.31Z"/><path d="M34.79,56.34h-.1c-.18-.09-.47-.1-.4-.42S34.86,55.79,34.79,56.34Z"/><path d="M23.58,76c.61-.53.48-.49.62-.31C24.12,75.92,24.12,76.23,23.58,76Z"/><path d="M20.85,52c.31-.05.48,0,.43.3s-.19.26-.29.39C20.81,52.63,20.85,52.74,20.85,52Z"/><path d="M-3.68,34.78c-.63.16-.44.18-.68-.14C-3.94,34.38-4.12,34.35-3.68,34.78Z"/><path d="M33.81,79.54c0-.69.62-.54.58-.31S34.11,79.57,33.81,79.54Z"/><path d="M61.87,78.23c-.64-.16-.64-.16-.62-.56C61.57,77.67,61.69,77.89,61.87,78.23Z"/><path d="M29.17,34.94c-.22,0-.37.05-.48,0s-.13-.27-.09-.3C29,34.28,29.05,34.71,29.17,34.94Z"/><path d="M-8.91,37.28a.52.52,0,0,1,.18.82C-9.07,37.85-8.9,37.54-8.91,37.28Z"/><path d="M.7,16.13c.2.84-.4.76-.48.59S.54,16.27.7,16.13Z"/><path d="M59.3,77c-.49.3-.55.26-.71-.41Z"/><path d="M93.58,28.74c-.06-.24-.1-.42-.16-.68l.69.33Z"/><path d="M19.66,71.41c0,.26,0,.56-.34.66C19.15,71.68,19.45,71.56,19.66,71.41Z"/><path d="M64.77,86a1.67,1.67,0,0,1,0,.48.33.33,0,0,1-.29.1,1.11,1.11,0,0,1-.19-.34Z"/><path d="M88.41,7.68c.39-.23.53.1.82.16C88.82,8.1,88.82,8.1,88.41,7.68Z"/><path d="M88.06,11.87c0,.22.13.56-.38.5-.05,0-.12-.22-.08-.29S87.78,12,88.06,11.87Z"/><path d="M58.21,76.29c.07.11.22.28.19.33-.18.28-.4.15-.74,0C58.29,76.25,58.23,76.29,58.21,76.29Z"/><path d="M87.07,41.73c.22.53.06.65-.42.67C86.8,42.15,86.9,42,87.07,41.73Z"/><path d="M91.64,21.07c.07.42.18.29-.29.52C91.24,21.29,91.14,21.42,91.64,21.07Z"/><path d="M60.94,73.41c-.15.6,0,.53-.55.39.1.26-.13-.7.52-.46Z"/><path d="M67.59,61c-.58,0-.6-.31-.77-.48C67,60.36,66.87,60.28,67.59,61Z"/><path d="M93.05,28.27c.22.35.13.65-.17,1C92.63,28.65,93.27,28.2,93.05,28.27Z"/><path d="M108.72,58.92c.4.35.15.56,0,.78C108.52,59.68,108.55,59.84,108.72,58.92Z"/><path d="M78.5,36.42l-.52.24c0-.13-.07-.2,0-.25C78,36.07,78.21,36.13,78.5,36.42Z"/><path d="M36.71,78.31c-.12.06-.17.11-.21.1-.37-.11-.37-.31-.19-.55C36.66,77.78,36.56,77.69,36.71,78.31Z"/><path d="M97.72-3.76,97.16-4c.15-.08.27-.2.36-.17S97.89-4,97.72-3.76Z"/><path d="M8.48-.13c.06.54-.24.64-.41.84C7.85.56,7.8.73,8.48-.13Z"/><path d="M6.94,8.43c-.24.12-.5.31-.71-.23C7.08,8.27,7,8.2,6.94,8.43Z"/><path d="M8.07,8.58l0-.49c.12,0,.19,0,.2,0C8.37,8.33,8.37,8.33,8.07,8.58Z"/><path d="M35.46,82.59l.38-.52c.08.18.15.26.14.34C36,82.74,35.78,82.74,35.46,82.59Z"/><path d="M64,34c.45.53,0,.55-.26.68Z"/><path d="M61.08,37.62c-.18.26,0,.2-.57.28,0-.21.06-.36.1-.57Z"/><path d="M11.28,5.92c.09-.57-.11-.39.63-.74C12,5.43,12.14,5.27,11.28,5.92Z"/><path d="M97.11-.93c-.23.45-.23.45-.66.45C96.59-1,97.13-.86,97.11-.93Z"/><path d="M51.45,63.49l.76-.31C52.08,63.43,52,63.76,51.45,63.49Z"/><path d="M67.81,17.07c.14.42-.06.55-.43.55C67.52,17.44,67.67,17.26,67.81,17.07Z"/><path d="M97.11-.92l.43-.59c.15.59.13.62-.43.58Z"/><path d="M-4.06,46.87c.14-.56.14-.56.53-.41C-3.5,46.7-3.39,46.6-4.06,46.87Z"/><path d="M65.65,23c-.07.28.06.72-.62.7Z"/><path d="M63.14,78.09c-.1-.16-.2-.32-.28-.48,0,0,.11-.11.16-.1C63.3,77.55,63.35,77.74,63.14,78.09Z"/><path d="M81.28,58.6c-.5.18-.66-.16-.93-.2C80.5,58.1,80.31,58.08,81.28,58.6Z"/><path d="M68,80.46c-.27-.31-.14-.49,0-.75C68.25,80,68.31,80.19,68,80.46Z"/><path d="M.83,52c-.07-.28-.07-.53.44-.77C1,52.21,1.07,52.08.83,52Z"/><path d="M8,37.88c-.47-.34,0-.7.17-.49S8.2,37.75,8,37.88Z"/><path d="M16.58,33.51c.28.11.6,0,.58.43C16.83,34,16.66,33.92,16.58,33.51Z"/><path d="M3.29,62.43c.59.26.59.26.19.66Z"/><path d="M55.66,69.16c.13-.48.44-.43.79-.47C56.3,69.17,56.46,69.05,55.66,69.16Z"/><path d="M26.79,16.8c-.51.24-.63.08-.69-.42Z"/><path d="M55.3,73.33l-.54-.46.39-.45C55.21,72.74,55.24,73,55.3,73.33Z"/><path d="M66.26,71.22c.16-.19,0-.61.67-.56C66.33,71.4,66.45,71.33,66.26,71.22Z"/><path d="M66.38,71.86c.15.16.58.15.25.69C66.11,71.88,66.15,72,66.38,71.86Z"/><path d="M13.65,59.74c.2,1,.22.83,0,.89C13.32,59.67,13.29,59.84,13.65,59.74Z"/><path d="M109.55,66l.59.09C109.92,66.48,109.92,66.48,109.55,66Z"/><path d="M58.93,65.25c.2.26.21.47-.3.6C58.72,65.11,58.65,65.22,58.93,65.25Z"/><path d="M93.28,47.43c0,.5-.2.57-.55.47Z"/><path d="M57.06,69.9c.37-.3.57-.21.8.2Z"/><path d="M25.75,54.65c.38-.12.26-.21.5.29C26,55.05,26.09,55.14,25.75,54.65Z"/><path d="M64.44,65c-.32-.23-.52-.37-.29-.71C64.47,64.41,64.47,64.63,64.44,65Z"/><path d="M109.83,60.14c.1.42,0,.68-.47.62Z"/><path d="M54.3,24.3c-.22-.42,0-.56.18-.67C54.7,23.74,54.71,23.61,54.3,24.3Z"/><path d="M27.73,83.53c-.12-.29-.23-.54-.38-.87C27.83,82.94,27.83,82.94,27.73,83.53Z"/><path d="M102,68.05c.75.35.76.23.11.44C102,68,102,68,102,68.05Z"/><path d="M67,68l-.5-.41C66.86,67.43,67,67.45,67,68Z"/><path d="M102.59,67.16c.26-.27.46-.16.69.11C102.92,67.51,102.54,67,102.59,67.16Z"/><path d="M43.18,50.5c.2.48.2.34-.07.51C42.89,50.62,42.9,50.76,43.18,50.5Z"/><path d="M28.23-.13l.54-.54C28.84-.19,28.63-.13,28.23-.13Z"/><path d="M21.41,73.28l-.7,0C20.93,73,21.05,72.79,21.41,73.28Z"/><path d="M54.14,28.74c-.26-.43-.25-.32,0-.49C54.35,28.73,54.37,28.63,54.14,28.74Z"/><path d="M63.2,76.64c-.24-.42-.24-.42.32-.58C63.24,76.67,63.29,76.6,63.2,76.64Z"/><path d="M18.14,7.17l-.5-.37C17.92,6.53,17.92,6.53,18.14,7.17Z"/><path d="M91.71-3c.13-.43.13-.43.56-.2Z"/><path d="M66.82,20.77c-.14,0-.38,0-.42-.1s0-.36.35-.42C66.81,20.85,66.8,20.79,66.82,20.77Z"/><path d="M111.26,57.45l-.6.17C110.77,57.36,110.85,57.05,111.26,57.45Z"/><path d="M37.34,32.73c0-.22,0-.4.07-.62C37.77,32.42,37.77,32.42,37.34,32.73Z"/><path d="M73.6,6.81l-.51.4C73,6.81,73,6.81,73.6,6.81Z"/><path d="M37.34,83.63c0,.49,0,.49-.46.6C36.89,84.25,36.85,84.29,37.34,83.63Z"/><path d="M49.73,42.64c0-.44.09-.55.55-.47Z"/><path d="M32,43.5c-.42-.43,0-.68.13-.54S32.18,43.32,32,43.5Z"/><path d="M77.62-1c.4-.1.28-.18.53.19C77.85-.68,78-.61,77.62-1Z"/><path d="M96.37,55.92l.74-.13c-.11.21-.18.33-.28.5Z"/><path d="M38.05,85.53l.68,0C38.57,85.89,38.57,85.89,38.05,85.53Z"/><path d="M-7.69,37.31c.09-.51.32-.47.55-.43C-7.06,37.19-6.95,37.09-7.69,37.31Z"/><path d="M27.74,19.91c-.08.62,0,.53-.27.51C27.48,19.8,27.41,19.9,27.74,19.91Z"/><path d="M38.11,88.07c.09.38.18.25-.27.5C37.71,88.3,37.63,88.43,38.11,88.07Z"/><path d="M68,72c.47-.08.52.19.61.46C68.31,72.31,68.31,72.31,68,72Z"/><path d="M31.7,84.29c.27-.22.38,0,.53.22l-.41.18C31.71,84.31,31.68,84.25,31.7,84.29Z"/><path d="M110.27,68.52c.15-.43.32-.39.56-.25C110.68,68.52,110.84,68.46,110.27,68.52Z"/><path d="M78.57,44.38c.18-.26.18-.26.5-.21C78.89,44.43,78.89,44.43,78.57,44.38Z"/><path d="M19.72,67c.07.17.16.28.14.37s-.19.16-.26.14a.35.35,0,0,1-.17-.27C19.44,67.15,19.59,67.09,19.72,67Z"/><path d="M10,81.33c.4.13.4.31.07.58Z"/><path d="M56.11,74.25l-.47.75C55.68,74.56,55.68,74.56,56.11,74.25Z"/><path d="M24,49.54c.16,0,.27,0,.35,0s.07.21,0,.23a.43.43,0,0,1-.29.07S24,49.68,24,49.54Z"/><path d="M32.39,28.65c-.18-.14-.4-.26-.19-.71C32.61,28.68,32.6,28.54,32.39,28.65Z"/><path d="M35,20.63c0,.35-.07.53-.34.5-.06,0-.11-.13-.16-.21Z"/><path d="M5.15,80.6c-.09.55-.09.55-.57.17Z"/><path d="M15.83,50.69c.48,0,.35-.07.47.23C15.87,51,16,51.05,15.83,50.69Z"/><path d="M104.4,27.76c-.06.29-.09.44-.13.61C103.88,28.09,103.88,28.09,104.4,27.76Z"/><path d="M88,50.35c.4-.64.29-.55.47-.45C88.08,50.55,88.19,50.47,88,50.35Z"/><path d="M14.8,49c0,.38.11.28-.3.48C14.4,49.05,14.37,49.19,14.8,49Z"/><path d="M8.3,62.17c-.23-.47.36-.57.38-.31S8.55,62.21,8.3,62.17Z"/><path d="M97.65,29.09c.22.29.24.15-.15.63C97.32,29.36,97.42,29.21,97.65,29.09Z"/><path d="M94.2,50.06c.46-.07.57.06.54.3,0,.06-.12.1-.19.16Z"/><path d="M65.74,66.67c-.22-.56.14-.39.34-.4l.11.18C65.73,66.67,65.73,66.65,65.74,66.67Z"/><path d="M98.33-2.77l-.47.21C97.93-3,97.93-3,98.33-2.77Z"/><path d="M62.62,72.78c-.27-.46-.27-.46.23-.65C62.84,72.1,62.86,72.06,62.62,72.78Z"/><path d="M64.83,65c.25.48-.11.55-.14.77C64.49,65.65,64.48,65.8,64.83,65Z"/><path d="M65.46,62.94c.38-.2.46,0,.58.14C65.92,63.28,66,63.29,65.46,62.94Z"/><path d="M76.39,37.26c.09-.32.3-.36.61-.26C76.84,37.57,76.37,37.16,76.39,37.26Z"/><path d="M82.79,64c0,.49.12.37-.18.55C82.46,64.4,82.43,64.52,82.79,64Z"/><path d="M90.43,5.65c-.23.58-.13.51-.38.43C90.23,5.46,90.14,5.54,90.43,5.65Z"/><path d="M81.15,67.19c.14-.18,0-.21.43.06C81.42,67.49,81.52,67.49,81.15,67.19Z"/><path d="M-6.74,24.65c-.26.44-.17.4-.42.21C-6.82,24.5-6.91,24.52-6.74,24.65Z"/><path d="M58,62.11l.64.13C58.29,62.58,58.29,62.58,58,62.11Z"/><path d="M41.36,89.54c.42,0,.5.19.45.46C41.59,90.09,41.7,90.17,41.36,89.54Z"/><path d="M54.8,60.88l-.27.4c-.06,0-.15-.07-.16-.12C54.31,60.93,54.44,60.85,54.8,60.88Z"/><path d="M80.16,2.17l-.47.08C79.83,2,79.83,2,80.16,2.17Z"/><path d="M51,64.29a.46.46,0,0,1-.23-.65C51.07,63.66,51,63.54,51,64.29Z"/><path d="M-4.91,34.12c-.06-.52.44-.44.42-.24S-4.71,34.14-4.91,34.12Z"/><path d="M21.47-1.71c.42-.09.42-.09.34.38Z"/><path d="M14,16.74c0-.34.15-.43.44-.37C14.51,16.68,14.37,16.76,14,16.74Z"/><path d="M14.16,61.44l.32-.34c0,.08.13.17.11.23C14.47,61.69,14.11,61.31,14.16,61.44Z"/><path d="M32.9,25.57c.51.12.56.28.38.66C33.14,26,33.06,25.85,32.9,25.57Z"/><path d="M31.09,53.6c-.08.18-.17.35-.32.68C30.71,53.84,30.85,53.7,31.09,53.6Z"/><path d="M24.52,75.12c.49.07.49.07.27.45C24.4,75.52,24.61,75.07,24.52,75.12Z"/><path d="M39.64,45.93c.12.39.16.27-.12.45C39.32,46,39.31,46.13,39.64,45.93Z"/><path d="M64.11,6c-.3.18-.45.08-.52-.25C63.88,5.58,64,5.68,64.11,6Z"/><path d="M36.48,67.4l.11.78c-.34-.34-.5-.55-.1-.78Z"/><path d="M54.1,32.27c-.34.23-.34.23-.67,0,.25-.13.45-.35.68,0Z"/><path d="M68.31,3c.27-.65.18-.56.36-.53,0,.35.06.21-.19.59Z"/><path d="M40.64,63.57a2.27,2.27,0,0,1,.48,0c.06,0,.12.2.09.24a.47.47,0,0,1-.28.14S40.84,63.86,40.64,63.57Z"/><path d="M56,32.93l-.66.36C55.44,32.89,55.59,32.8,56,32.93Z"/><path d="M62.69,20.49c-.47-.11-.71-.18-.44-.64C62.4,20.06,62.5,20.2,62.69,20.49Z"/><path d="M30.71,91.8c.19.36.23.24-.12.46C30.48,91.92,30.47,92,30.71,91.8Z"/><path d="M49.48,52.31c0,.54,0,.4-.28.48C49.16,52.33,49.12,52.47,49.48,52.31Z"/><path d="M58.12,36.18l-.57-.43C58,35.65,58.1,35.78,58.12,36.18Z"/><path d="M60.06,35.92c0-.32.15-.44.45-.28C60.45,35.91,60.32,36,60.06,35.92Z"/><path d="M38.81,83.07c-.34-.32-.25-.47.18-.63Z"/><path d="M75.64,6.26l0,.48C75.32,6.57,75.32,6.57,75.64,6.26Z"/><path d="M94.88,45.4c-.27.35-.18.3-.38.16C94.77,45.2,94.68,45.23,94.88,45.4Z"/><path d="M95.71,55.27c-.3.4-.45.29-.65,0Z"/><path d="M87.9,42.76c.32.4.32.4-.12.66C87.79,43.45,87.78,43.53,87.9,42.76Z"/><path d="M98.33,67.1c.44-.13.46.08.41.44C98.28,67.32,98.4,67.43,98.33,67.1Z"/><path d="M80.08,57.16c-.44.13-.42-.13-.41-.39Z"/><path d="M72,74.17c-.37-.23-.24-.4-.14-.56C72.05,73.64,72,73.52,72,74.17Z"/><path d="M87.7,39l-.12-.54c.14,0,.2,0,.23,0C88,38.68,88,38.85,87.7,39Z"/><path d="M81.58,51.43c.09-.37.09-.37.46,0Z"/><path d="M82.23,49.35l-.58.35c0-.09-.08-.14-.07-.17C81.65,49.3,81.8,49.23,82.23,49.35Z"/><path d="M103,69.13c0,.17,0,.35.1.66C102.69,69.54,102.75,69.34,103,69.13Z"/><path d="M91.59,26l.07.61C91.32,26.39,91.32,26.39,91.59,26Z"/><path d="M109.73,69c0,.39,0,.39-.39.32Z"/><path d="M65.37,78.82c-.11-.24-.27-.49,0-.66C65.59,78.25,65.57,78.11,65.37,78.82Z"/><path d="M63.27,76.61c.36.33.35.2,0,.55-.15-.1-.14,0,0-.52Z"/><path d="M70.36,60.48c-.25.39-.47.26-.68.17C69.71,60.4,69.57,60.44,70.36,60.48Z"/><path d="M17.71,48c0,.27,0,.45-.38.38C17.58,47.83,17.49,47.89,17.71,48Z"/><path d="M14.93.07c-.21-.37,0-.46.15-.54C15.29-.33,15.31-.45,14.93.07Z"/><path d="M99.69,72.59c-.24.39-.13.43-.4-.13.11-.1,0-.11.41.15Z"/><path d="M19.64,51.59l-.07.51C19.23,51.89,19.26,51.73,19.64,51.59Z"/><path d="M-5,45.33c.08.39.09.28-.11.39C-5.26,45.4-5.27,45.51-5,45.33Z"/><path d="M8.09,17c.42-.09.34-.14.39.17C8.07,17.21,8.17,17.24,8.09,17Z"/><path d="M62.18,77.62c.15.13.29.27.54.48C62.29,78.11,62.2,77.9,62.18,77.62Z"/><path d="M-8.43,21.24c.28,0,.21-.1.31.22C-8.39,21.45-8.31,21.48-8.43,21.24Z"/><path d="M-4.74,14.85l.15.67C-5,15.3-5.08,15.13-4.74,14.85Z"/><path d="M82,79.86a.78.78,0,0,1,0,.34.23.23,0,0,1-.23.06.24.24,0,0,1-.11-.21c0-.06.11-.11.17-.17Z"/><path d="M-1.18,9.46c.23-.12.17-.16.3.13C-1.13,9.66-1,9.67-1.18,9.46Z"/><path d="M44.8,60.48c-.13.07-.26.15-.39.21a.51.51,0,0,1-.09-.16,3.41,3.41,0,0,1,.37-.25Z"/><path d="M73.05,20.05c.06-.24.09-.37.16-.67C73.37,19.74,73.43,19.89,73.05,20.05Z"/><path d="M-1.92,18.55c-.34-.39-.33-.29-.07-.48C-1.72,18.51-1.73,18.41-1.92,18.55Z"/><path d="M51.44,21.1c.32.46.09.56-.23.82C51.3,21.58,51.35,21.41,51.44,21.1Z"/><path d="M63.14,21.2l-.45-.43C63,20.66,63.22,20.66,63.14,21.2Z"/><path d="M64.87,72.07c-.2.24-.39.24-.55-.12C64.93,72.1,64.87,72.1,64.87,72.07Z"/><path d="M64.22,40.83c-.5.21-.4.23-.5,0C64.2,40.58,64.1,40.57,64.22,40.83Z"/><path d="M88.18,59.71c.21.13.22,0,0,.49C87.9,60,87.91,60.14,88.18,59.71Z"/><path d="M108.11,67.56a1,1,0,0,1-.6.08s0,.07.27-.39Z"/><path d="M32.92,27.64c.07.19.32.33,0,.73C32.67,27.6,32.65,27.75,32.92,27.64Z"/><path d="M101.71,71.55c.17-.52.1-.45.3-.4C101.9,71.69,102,71.62,101.71,71.55Z"/><path d="M93.07,28.27c-.33-.29-.33-.29.2-.59C93,28.35,93,28.28,93.07,28.27Z"/><path d="M109.82,68c.56-.17.44-.17.55,0C110.05,68.37,110.18,68.38,109.82,68Z"/><path d="M57,70.17c.08.21.13.33.19.51a1,1,0,0,1-.29,0C56.66,70.56,56.72,70.42,57,70.17Z"/><path d="M100.55,65.7c-.3-.38-.31-.27,0-.47C100.75,65.67,100.76,65.57,100.55,65.7Z"/><path d="M59.52,68.25c.18-.39.38-.29.58.08C59.44,68.23,59.51,68.23,59.52,68.25Z"/><path d="M56.91,32.07c-.21.43-.14.38-.3.32C56.77,31.93,56.7,32,56.91,32.07Z"/><path d="M68.3,63c.1.3.18.15-.29.57C67.82,63.36,67.77,63.48,68.3,63Z"/><path d="M27.76,74.14c0,.3,0,.45-.35.47C27.34,74.3,27.52,74.23,27.76,74.14Z"/><path d="M68.85,31.72c-.2.59-.12.51-.33.45C68.74,31.54,68.66,31.61,68.85,31.72Z"/><path d="M109.2,71.37c.42.29.31.16.35.51C109.17,71.89,109.13,71.72,109.2,71.37Z"/><path d="M-2.95,57.5a1.19,1.19,0,0,1,.38,0s.07.21,0,.23a.47.47,0,0,1-.3.08S-2.89,57.63-2.95,57.5Z"/><path d="M62.06,49.6c-.4.06-.29.16-.43-.32C62,49.25,61.85,49.15,62.06,49.6Z"/><path d="M64.82,14.77c.29.26.16.41-.12.66C64.65,14.9,64.62,15.07,64.82,14.77Z"/><path d="M26.36,78.83l.07.44C26.05,79.06,26.05,79.06,26.36,78.83Z"/><path d="M46.35,53.75c.28-.46.2-.4.34-.33C46.46,53.92,46.55,53.87,46.35,53.75Z"/><path d="M8.41,35.79c0,.33.09.26-.3.24C8.14,35.81,8,35.86,8.41,35.79Z"/><path d="M20,66.33c-.39.09-.29.16-.46-.16C19.87,66,19.75,66,20,66.33Z"/><path d="M37,86.89c0-.28.1-.41.55-.34C37.05,87.11,37.18,87.06,37,86.89Z"/><path d="M47,63.34c.09-.09.17-.19.27-.28l.09.08C47.12,63.54,47.17,63.48,47,63.34Z"/><path d="M21,15.57c.3-.63.21-.55.39-.48C21.19,15.77,21.28,15.68,21,15.57Z"/><path d="M12,84.51c.48.35.43.26.31.43C11.78,84.63,11.83,84.72,12,84.51Z"/><path d="M59,62.06c-.51-.31-.46-.21-.34-.42C59.16,61.94,59.12,61.83,59,62.06Z"/><path d="M64.81,77.08l.12.56C64.69,77.51,64.52,77.37,64.81,77.08Z"/><path d="M70.78,36c.58-.45.45-.44.62-.22C70.82,36.25,71,36.22,70.78,36Z"/><path d="M37.66,66.73c.1.44,0,.57-.42.53Z"/><path d="M31.88,93.8l-.25.45C31.46,93.94,31.49,93.79,31.88,93.8Z"/><path d="M53.71,73.21c0-.47,0-.36.22-.41C54,73.24,54,73.13,53.71,73.21Z"/><path d="M52.51,75.67c.51-.18.41-.19.48,0C52.52,75.9,52.62,75.91,52.51,75.67Z"/><path d="M98.64,57.83c.22.43.22.43-.23.65C98.68,57.75,98.67,57.82,98.64,57.83Z"/><path d="M95,65.24c.09.28.16.47.27.81C94.86,65.82,94.78,65.64,95,65.24Z"/><path d="M5.51,59c-.23-.07-.18.05-.18-.54C5.63,58.54,5.59,58.43,5.51,59Z"/><path d="M64.2,79.12c-.23.14-.4,0-.56-.29C64.35,78.92,64.24,78.85,64.2,79.12Z"/><path d="M6.94,66.2c-.13.07-.16.2-.47,0,0,0,0-.3.33-.17A.35.35,0,0,1,6.94,66.2Z"/><path d="M35.85,62.54c.44.41.4.31.27.47C35.64,62.64,35.68,62.74,35.85,62.54Z"/><path d="M42.15-9.47l.22-.65C42.6-9.83,42.57-9.68,42.15-9.47Z"/><path d="M60.78,84.81c0,.2,0,.31.06.42C60.13,85.27,60.19,85.38,60.78,84.81Z"/><path d="M19.87,73l.3-.63C20.33,72.7,20.21,72.82,19.87,73Z"/><path d="M98.83,57.46c.06.15.09.07-.19.37C98.42,57.55,98.14,57.69,98.83,57.46Z"/><path d="M96.05,62.72c.23,0,.18-.11.27.38C96.09,63.15,96.15,63.22,96.05,62.72Z"/><path d="M94.82,65c-.29-.27-.27-.18,0-.4C95,65,95,64.9,94.82,65Z"/><path d="M16.1,87.9c-.28-.32-.27-.24-.07-.37C16.26,87.89,16.25,87.8,16.1,87.9Z"/><path d="M35.37,84c-.25-.31-.25-.31.06-.71C35.4,83.57,35.39,83.77,35.37,84Z"/><path d="M69.69,3.67c-.4,0-.34,0-.4-.14.41-.21.33-.26.38.15Z"/><path d="M50.41,62.52c.3.15.3.15.19.58C50.52,62.87,50.47,62.72,50.41,62.52Z"/><path d="M102.75,63.21c.49,0,.29,0,.71.27C102.71,63.56,102.86,63.64,102.75,63.21Z"/><path d="M41.11,38.41c-.27,0-.46-.09-.31-.48Z"/><path d="M6.39,14.87c.1.39.15.28-.14.44C6.09,15,6.08,15.11,6.39,14.87Z"/><path d="M78.94,48.87a1.32,1.32,0,0,1,.34,0s0,.17,0,.17a1.67,1.67,0,0,1-.32.08Z"/><path d="M109.24,67.86c.13-.06.22-.14.29-.12a.17.17,0,0,1-.1.33C109.37,68.07,109.33,68,109.24,67.86Z"/><path d="M69.15,42.6c-.45.2-.35.21-.45,0C69.11,42.36,69,42.36,69.15,42.6Z"/><path d="M79.81,1c.62-.15.51-.17.56,0C79.8,1.26,79.92,1.27,79.81,1Z"/><path d="M71,38c.19-.41.12-.36.3-.3C71.2,38.11,71.27,38.05,71,38Z"/><path d="M73.07,17.5c-.51.22-.41.23-.51.05C73,17.22,72.91,17.22,73.07,17.5Z"/><path d="M87.82,7.44c0,.54.07.46-.18.46C87.64,7.35,87.59,7.44,87.82,7.44Z"/><path d="M89.68,50c-.43.12-.36.12-.43,0,.18-.18.06-.16.42-.14Z"/><path d="M61.76,64.62l-.3.26s-.09-.08-.08-.09C61.64,64.4,61.6,64.46,61.76,64.62Z"/><path d="M4.08,22c.08-.2.14-.67.49-.21C4,22,4.07,21.94,4.08,22Z"/><path d="M54.37,31.83c0,.74.1.66-.27.44C54.31,31.83,54.18,31.82,54.37,31.83Z"/><path d="M50.61,71.12l-.34-.07s0-.12,0-.12C50.71,71,50.64,71,50.61,71.12Z"/><path d="M20.61-.2c.06-.13.12-.27.19-.4l.13,0C20.8,0,20.84-.12,20.61-.2Z"/><path d="M2.89,13.68c0-.44-.07-.36.13-.38C3.05,13.74,3.09,13.67,2.89,13.68Z"/><path d="M-1.48,23.54c-.27.15-.18.19-.39-.06C-1.69,23.34-1.79,23.3-1.48,23.54Z"/><path d="M3.57,14.25c.12.28.17.18-.16.39C3.33,14.42,3.27,14.52,3.57,14.25Z"/><path d="M12.25,15.61c-.42-.12-.37-.06-.33-.22C12.38,15.5,12.32,15.45,12.25,15.61Z"/><path d="M5.37,28.74c-.29-.06-.21,0-.27-.24.28-.07.18-.12.45.13Z"/><path d="M17.84,1.25c.12.37.13.26-.11.37C17.61,1.3,17.61,1.41,17.84,1.25Z"/><path d="M4.9,28.84a1.47,1.47,0,0,1,0,.28.28.28,0,0,1-.18,0,.67.67,0,0,1-.07-.24A1.05,1.05,0,0,1,4.9,28.84Z"/><path d="M15.22,7C15,7,15,7,14.93,6.71,15.25,6.64,15.18,6.6,15.22,7Z"/><path d="M-3.66,45.06c.16.17.2.08-.12.41C-3.95,45.3-4,45.39-3.66,45.06Z"/><path d="M65.83,35.54c-.42.47-.32.42-.48.29C65.74,35.32,65.63,35.36,65.83,35.54Z"/><path d="M67.6,30.21,68,30C68.05,30.49,67.74,30.2,67.6,30.21Z"/><path d="M1.63,32.85c.08.41.13.3-.18.42C1.33,32.93,1.32,33.05,1.63,32.85Z"/><path d="M103.5,24.08c-.46,0-.37.05-.4-.11C103.55,23.88,103.47,23.85,103.5,24.08Z"/><path d="M5.64,18.59c-.16-.15-.2-.06.08-.39C5.86,18.3,5.87,18.21,5.64,18.59Z"/><path d="M69.77,23.7s.08-.09.09-.09l.34.25C70,24,70.07,24.09,69.77,23.7Z"/><path d="M3.74,21.61c-.11-.07-.35-.14-.18-.41,0,0,.27-.13.26.22C3.82,21.51,3.71,21.63,3.74,21.61Z"/><path d="M70.72,66.24c-.63-.18-.55-.11-.5-.28C70.86,66.09,70.77,66,70.72,66.24Z"/><path d="M91.69,75.89l-.35.11,0-.11C91.69,75.67,91.62,75.69,91.69,75.89Z"/><path d="M96.11,65.09c0-.25-.07-.21.33-.19C96.46,65.13,96.53,65.08,96.11,65.09Z"/><path d="M37,92.47l0,.59C36.78,92.78,36.78,92.78,37,92.47Z"/><path d="M80.55,44c-.42.22-.33.21-.44,0C80.5,43.76,80.41,43.76,80.55,44Z"/><path d="M94.59,66.76l-.3-.27C94.58,66.46,94.58,66.46,94.59,66.76Z"/><path d="M50.29,63.82c0,.44.07.33-.24.46C50,63.92,50,64,50.29,63.82Z"/><path d="M5.14,13.91c.42-.35.32-.33.48-.15C5.23,14.16,5.34,14.14,5.14,13.91Z"/><path d="M39.5,85.63c-.23.27-.17.23-.3.14C39.45,85.49,39.39,85.51,39.5,85.63Z"/><path d="M84.89,48.26c.4,0,.32,0,.35.11C84.82,48.47,84.9,48.5,84.89,48.26Z"/><path d="M88.2,77.13c0,.35.12.27-.21.41C87.9,77.24,87.84,77.34,88.2,77.13Z"/><path d="M100.13,45.37c.08.39.15.29-.16.47C99.86,45.54,99.82,45.67,100.13,45.37Z"/><path d="M71.12,82.13l-.32.09a1.23,1.23,0,0,1,0-.25s.13-.09.17-.07S71,82,71.12,82.13Z"/><path d="M68.72,76.33c-.06-.31-.08-.22.12-.3C68.93,76.28,68.94,76.2,68.72,76.33Z"/><path d="M106.78,67.48c.07-.22.15-.43.26-.77C107.3,67.42,106.74,67.4,106.78,67.48Z"/><path d="M92,39.29c.42-.12.3-.16.44.13C92.22,39.5,92.33,39.55,92,39.29Z"/><path d="M79.47,80.65c-.06.36,0,.3-.31.34C79.15,80.7,79.06,80.78,79.47,80.65Z"/><path d="M87.22,62.28l-.2.23-.1-.09C87.14,62.13,87.11,62.18,87.22,62.28Z"/><path d="M80.54,76.37c.08.26.14.19-.17.3C80.32,76.43,80.27,76.5,80.54,76.37Z"/><path d="M78.55,41.85c-.26.09-.19.15-.32-.15C78.5,41.63,78.41,41.61,78.55,41.85Z"/><path d="M50.31,61.59c0-.47,0-.4.16-.39C50.44,61.68,50.48,61.6,50.31,61.59Z"/><path d="M62.59,28.64c0-.5,0-.43.18-.42C62.78,28.73,62.83,28.65,62.59,28.64Z"/><path d="M47.45,61.19a1.3,1.3,0,0,1,0,.27s-.18,0-.19,0a1,1,0,0,1-.07-.25Z"/><path d="M76.13,44.25l-.4,0c0-.05,0-.13,0-.14C76.22,44,76.14,44,76.13,44.25Z"/><path d="M55.66,39.84c0-.4,0-.32.21-.33C55.83,39.91,55.89,39.85,55.66,39.84Z"/><path d="M61.59,26.81c-.11.5-.05.43-.23.4C61.39,26.68,61.33,26.76,61.59,26.81Z"/><path d="M77.63,40.3c-.45,0-.39,0-.33-.22C77.72,40.2,77.66,40.14,77.63,40.3Z"/><path d="M57.64,33.17c.29-.05.21-.12.35.19C57.77,33.43,57.85,33.5,57.64,33.17Z"/><path d="M33.65,85.12c-.25.44-.17.4-.34.3C33.58,85,33.5,85,33.65,85.12Z"/><path d="M34.3,82.74c-.24.39-.17.34-.32.27C34.14,82.56,34.06,82.61,34.3,82.74Z"/><path d="M74.56-4.16c-.31.08-.22.14-.35-.17C74.36-4.39,74.27-4.43,74.56-4.16Z"/><path d="M54.39,37.81c.53.25.46.17.4.32C54.26,37.88,54.33,38,54.39,37.81Z"/><path d="M73.83-4.39c.06-.52,0-.44.22-.4C74-4.29,74-4.36,73.83-4.39Z"/><path d="M51.56,42.54c.14,0,.24-.11.29-.08a.23.23,0,0,1,.08.22.22.22,0,0,1-.2.1C51.67,42.76,51.64,42.66,51.56,42.54Z"/><path d="M55.26,34.36c-.18.49-.12.42-.3.37C55.08,34.21,55,34.28,55.26,34.36Z"/><path d="M60.39,73.8c-.37.62-.25.59-.37,0C60.44,73.82,60.4,73.82,60.39,73.8Z"/><path d="M41.18,63c.36-.52.26-.47.47-.3C41.21,63.14,41.31,63.09,41.18,63Z"/><path d="M31.7,84.27c-.06.27-.11.53-.66.28C31.78,84.26,31.71,84.3,31.7,84.27Z"/><path d="M46.4,51.33c0,.12.1.27.05.37s-.24,0-.23-.18a1.34,1.34,0,0,1,.07-.18Z"/><path d="M107.84,69l-.5-.28C107.85,68.49,107.75,68.47,107.84,69Z"/><path d="M40.73,62.92c.17.43.17.33,0,.43C40.52,62.91,40.5,63,40.73,62.92Z"/><path d="M51.5,38.56l.62.09C51.85,38.81,51.85,38.81,51.5,38.56Z"/><path d="M67.78,3.52c.13-.48.07-.42.24-.37C67.85,3.62,67.9,3.56,67.78,3.52Z"/><path d="M76.38,37.24c-.26.24-.44.19-.58-.19C76.26,36.91,76.41,37.38,76.38,37.24Z"/><path d="M59.33,72.72s.06,0-.27-.06C59.18,72.45,59.12,72.45,59.33,72.72Z"/><path d="M105.75,66.57c.23.12.22.27,0,.51C105.57,66.55,105.56,66.66,105.75,66.57Z"/><path d="M36.78,64.62c-.19.47-.12.4-.28.38,0-.39,0-.27.2-.44Z"/><path d="M105.5,74.22c.07.4.15.31-.18.43C105.24,74.41,105.18,74.52,105.5,74.22Z"/><path d="M30.88,72.68c-.3-.23-.25-.14-.13-.35C31.05,72.58,31,72.51,30.88,72.68Z"/><path d="M37.51,45l-.37.07s0-.1,0-.11a2.44,2.44,0,0,1,.29-.27C37.44,44.75,37.47,44.85,37.51,45Z"/><path d="M22.44,74.8c.08-.34.21-.44.56-.21Z"/><path d="M99.7,72.61c.44-.25.48.15.32.23C99.7,73,99.69,72.47,99.7,72.61Z"/><path d="M87.27,7.27c-.29.31-.22.27-.34.16C87.22,7.13,87.15,7.15,87.27,7.27Z"/><path d="M40.14,22.77c.15.41.15.32,0,.41C39.92,22.77,39.9,22.86,40.14,22.77Z"/><path d="M18,67.3l.31-.18s.07.09.06.1C18.09,67.53,18.14,67.48,18,67.3Z"/><path d="M14.6,68.7c-.17.42-.11.36-.29.31C14.43,68.54,14.36,68.6,14.6,68.7Z"/><path d="M16.18,61.06c-.1.11-.2.21-.39.43,0-.43.16-.48.37-.47Z"/><path d="M56,70.8c.16-.35.1-.29.26-.25C56.19,70.92,56.25,70.87,56,70.8Z"/><path d="M19.85,51.22c.17-.47.09-.41.29-.36C20.05,51.38,20.12,51.31,19.85,51.22Z"/><path d="M86.86,5.4a1.27,1.27,0,0,1,0-.44s.17,0,.18,0C87.15,5.19,87,5.25,86.86,5.4Z"/><path d="M22.24,34.73c.13.42.16.3-.11.48C22,34.9,22,35,22.24,34.73Z"/><path d="M8.29,60.5c-.21-.1-.38-.23-.29-.53C8.58,59.94,8.12,60.57,8.29,60.5Z"/><path d="M44.35,91.18l.3-.32C44.75,91.17,44.75,91.17,44.35,91.18Z"/><path d="M22.26,9.36c-.06.48,0,.4-.22.4C22,9.27,22,9.35,22.26,9.36Z"/><path d="M72.83,29.27l.33-.06a.76.76,0,0,1,0,.26.19.19,0,0,1-.17.07A1,1,0,0,1,72.83,29.27Z"/><path d="M-.46,6.31c.41.25.37.17.27.34C-.6,6.4-.56,6.47-.46,6.31Z"/><path d="M6.36,1.6c0,.38,0,.29-.25.33C6.13,1.59,6.08,1.69,6.36,1.6Z"/><path d="M6.46,7.34c.22,0,.18-.06.18.31C6.43,7.65,6.48,7.71,6.46,7.34Z"/><path d="M4.17,13l.51,0C4.48,13.13,4.48,13.13,4.17,13Z"/><path d="M-3.49,30.92c.11.2.16.12-.16.34C-3.76,31.06-3.78,31.14-3.49,30.92Z"/><path d="M70.05,68c0-.24,0-.15.12-.4C70.38,68,70.2,68,70.05,68Z"/><path d="M108.88,41.66c-.33-.25-.31-.18-.2-.32C109,41.62,109,41.55,108.88,41.66Z"/><path d="M98.3,63.93l0,.28c-.19,0-.27.13-.27-.24C98.08,64,98.2,64,98.3,63.93Z"/><path d="M112.29,67.28c.07-.24.11-.38.15-.55C112.63,67,112.63,67,112.29,67.28Z"/><path d="M100.92,55.29l.26.17s0,.1-.05.09C100.79,55.44,100.84,55.46,100.92,55.29Z"/><path d="M90.16,76.88l.24-.07a.85.85,0,0,1,0,.26s-.15.08-.16.07A1.56,1.56,0,0,1,90.16,76.88Z"/><path d="M62.83,79.07c.41-.14.34-.15.39,0C62.81,79.21,62.89,79.23,62.83,79.07Z"/><path d="M20.35,51.33l.22-.1a2.09,2.09,0,0,1,.08.23l-.1.07Z"/><path d="M12.7,68.09a1.36,1.36,0,0,1-.18.28s-.15,0-.16-.07a.22.22,0,0,1,.07-.18S12.56,68.1,12.7,68.09Z"/><path d="M92,24.52c0,.31,0,.23-.21.35C91.68,24.67,91.62,24.76,92,24.52Z"/><path d="M61.08,74.12c-.08.22-.18.39-.53.07C61.14,74.12,61.09,74.14,61.08,74.12Z"/><path d="M89.74-1.46c.06.27.07.19-.11.29C89.6-1.46,89.58-1.37,89.74-1.46Z"/><path d="M48.15,44.3c-.19.41-.13.35-.24.31C48.1,44.2,48,44.25,48.15,44.3Z"/><path d="M96.6-2c.16,0,.12-.07.19.17C96.58-1.85,96.62-1.8,96.6-2Z"/><path d="M44,64.49c-.43.11-.33.11-.4,0C44,64.29,43.92,64.27,44,64.49Z"/><path d="M61.08,59.41c.07.25.07.17-.06.26C60.91,59.45,60.9,59.52,61.08,59.41Z"/><path d="M56.34,69.05c.31.13.26.28,0,.52C56.25,69,56.24,69.09,56.34,69.05Z"/><path d="M8,67.82l-.36,0a.35.35,0,0,1,0-.13C8.08,67.66,8,67.68,8,67.82Z"/><path d="M58.82,32.48c.07.31.14.22-.19.37C58.56,32.63,58.49,32.72,58.82,32.48Z"/><path d="M61.39,29c0,.25.07.18-.07.24C61.23,29.06,61.22,29.13,61.39,29Z"/><path d="M36.79,82.09c-.24-.35,0-.47.05-.62C37.06,81.56,37,81.43,36.79,82.09Z"/><path d="M56.08,40.52c.41.1.35,0,.32.21C56,40.68,56,40.73,56.08,40.52Z"/><path d="M60,33.19c-.47.05-.34.13-.49-.21C59.83,32.9,59.71,32.83,60,33.19Z"/><path d="M9.54,61c-.08,0-.16.11-.18.09a.19.19,0,0,1-.09-.16c0-.05.09-.08.14-.11Z"/><path d="M18.25,99.5c0,.4,0,.3-.2.34C18,99.49,18,99.59,18.25,99.5Z"/><path d="M16.21,101.1c-.15-.07-.15,0,0-.4C16.41,100.79,16.39,100.71,16.21,101.1Z"/><path d="M63.05,26.39c.2-.4.39-.38.58-.33S63.77,26.13,63.05,26.39Z"/><path d="M77.84,31c-.07.31,0,.26-.32.29C77.54,31.1,77.44,31.16,77.84,31Z"/><path d="M11.81,41.36c0,.28.08.23-.25.26C11.6,41.35,11.56,41.43,11.81,41.36Z"/><path d="M39.26,78.06c-.12.43-.06.37-.26.31C39.14,77.94,39.08,78,39.26,78.06Z"/><path d="M.08,61.31c-.49.36-.4.43-.27-.34C.12,61.38.08,61.33.08,61.31Z"/><path d="M36.48,84.72c.37.21.36.12.12.36C36.48,84.67,36.5,84.71,36.48,84.72Z"/><path d="M92.37,21.57c-.22.36-.14.33-.34.2C92.31,21.45,92.23,21.48,92.37,21.57Z"/><path d="M77.37,21.05c.09.15.12.1-.07.23C77.21,21.15,77.18,21.21,77.37,21.05Z"/><path d="M38.12,86.75c.12.14.14.08,0,.26C38,86.9,38,87,38.12,86.75Z"/><path d="M15,23.94a1,1,0,0,1-.32,0s-.06-.15,0-.18.15-.08.22-.12Z"/><path d="M53.19,34.61a1,1,0,0,1,.07.26s-.15.07-.17.05a1,1,0,0,1-.11-.21Z"/><path d="M69.93,36c.5,0,.4,0,.44.2C70,36.27,70.15,36.3,69.93,36Z"/><path d="M38.78,67l-.2.14a.71.71,0,0,1-.11-.21s.12-.13.13-.12A1.12,1.12,0,0,1,38.78,67Z"/><path d="M42.09,44.6l-.22.1a1.53,1.53,0,0,1-.08-.26s.14-.1.15-.09A1.18,1.18,0,0,1,42.09,44.6Z"/><path d="M49.62,63.31c-.45-.21-.39-.08-.38-.45C49.4,62.82,49.32,62.75,49.62,63.31Z"/><path d="M35.39,93.85c-.44,0-.36.05-.38-.09C35.45,93.69,35.38,93.65,35.39,93.85Z"/><path d="M58.22,76.29l.19-.5c.21.42-.1.39-.2.5Z"/><path d="M-2,58c-.24.07-.18.13-.28-.15C-2,57.77-2.13,57.76-2,58Z"/><path d="M58.18,56c.12-.07.19-.13.22-.12s.12.14.1.16C58.3,56.35,58.25,56.14,58.18,56Z"/><path d="M68.83,61.2c-.14-.27-.12-.18,0-.31C69,60.94,69,60.87,68.83,61.2Z"/><path d="M55.18,32.39c-.07-.33-.07-.24.06-.34C55.43,32.33,55.46,32.25,55.18,32.39Z"/><path d="M68.09,5.22A2.75,2.75,0,0,1,68.37,5s.09.08.09.08C68.17,5.44,68.23,5.4,68.09,5.22Z"/><path d="M67.37,36.31c-.28.41-.2.37-.33.29C67.3,36.16,67.23,36.22,67.37,36.31Z"/><path d="M55.14,61.13c.38-.09.27-.1.39.08C55.21,61.35,55.32,61.36,55.14,61.13Z"/><path d="M56.33,5.88c.36-.25.28-.25.38-.11C56.34,6,56.42,6,56.33,5.88Z"/><path d="M-2.92,51.05c.18-.39.11-.35.28-.29C-2.77,51.19-2.71,51.13-2.92,51.05Z"/><path d="M77.32,43.89c-.1.26,0,.22-.3.22C77.08,43.85,77,43.91,77.32,43.89Z"/><path d="M41.23,90.64c0-.47,0-.34.21-.42C41.54,90.6,41.6,90.51,41.23,90.64Z"/><path d="M64.17,72.26c0,.3,0,.21-.15.37C63.87,72.34,63.85,72.44,64.17,72.26Z"/><path d="M91.76,0a1.5,1.5,0,0,1-.21.12.66.66,0,0,1-.15-.22s.13-.12.16-.1A1.25,1.25,0,0,1,91.76,0Z"/><path d="M32.15,83.33c-.06.21-.15.36-.42.23C31.78,83,32.18,83.41,32.15,83.33Z"/><path d="M45.3,49.21a1.19,1.19,0,0,1,0,.26.24.24,0,0,1-.18,0,.67.67,0,0,1-.08-.25Z"/><path d="M113.2,59.14l0-.3a.56.56,0,0,1,.13,0C113.41,59.22,113.4,59.16,113.2,59.14Z"/><path d="M59.91,66c0-.18-.06-.33.16-.26,0,0,.06.06.08.1Z"/><path d="M23.06,75.51l-.21.27s-.1-.07-.09-.08C23,75.36,22.94,75.42,23.06,75.51Z"/><path d="M33.77,51.53c0,.19.08.28-.19.24,0,0,0-.11,0-.13A1.11,1.11,0,0,1,33.77,51.53Z"/><path d="M23.79,72c.31-.29.22-.25.36-.17C23.89,72.19,24,72.16,23.79,72Z"/><path d="M8,22.57c-.41,0-.3.07-.38-.15C7.92,22.33,7.81,22.31,8,22.57Z"/><path d="M86,69.43c.29,0,.21-.08.3.14C86,69.64,86.1,69.66,86,69.43Z"/><path d="M110.79,61.6c.35.14.3.09.26.22C110.7,61.7,110.74,61.75,110.79,61.6Z"/><path d="M28.7,90.53c.23-.14.16-.16.29.1C28.74,90.74,28.82,90.74,28.7,90.53Z"/><path d="M40.58,32.28c.22-.05.29-.16.34.18,0,0-.15.09-.17.07A1.18,1.18,0,0,1,40.58,32.28Z"/><path d="M90.5,42.64l.24-.26.09.1C90.58,42.81,90.61,42.75,90.5,42.64Z"/><path d="M66.62.62c.22,0,.2-.07.16.38C66.56,1,66.6,1.06,66.62.62Z"/><path d="M70.83-8.79c.34-.23.27-.22.36-.09C70.9-8.63,71-8.64,70.83-8.79Z"/><path d="M50,45c.4,0,.3-.06.36.17C50,45.26,50.09,45.28,50,45Z"/><path d="M57.11,71.59,57,72c-.13-.3-.13-.3.14-.43Z"/><path d="M20.63,68.47l.36-.06a.42.42,0,0,1,0,.12C20.62,68.72,20.69,68.69,20.63,68.47Z"/><path d="M3.73,21.62l.35.34h0l-.24.22a1.28,1.28,0,0,1-.15-.28C3.67,21.77,3.77,21.6,3.73,21.62Z"/><path d="M99.54,47.26c0,.28,0,.21-.18.21C99.39,47.2,99.35,47.27,99.54,47.26Z"/><path d="M59.91,65.09c-.06.41,0,.31-.23.34C59.67,65.15,59.64,65.25,59.91,65.09Z"/><path d="M75.36,31.62c.12.28.17.18-.08.41C75.17,31.83,75.14,31.94,75.36,31.62Z"/><path d="M96.19,25.78c.06-.71,0-.6.23-.57C96.26,25.84,96.31,25.75,96.19,25.78Z"/><path d="M86.17,77.59c.22-.06.16-.12.28.13C86.17,77.84,86.24,77.86,86.17,77.59Z"/><path d="M70.71,42.37l-.42.26C70.19,42.27,70.3,42.21,70.71,42.37Z"/><path d="M40.12,86c-.23.29-.17.25-.28.19C40.05,85.81,40,85.84,40.12,86Z"/><path d="M40.75,54.79c.42.15.37.09.31.25C40.64,54.9,40.69,55,40.75,54.79Z"/><path d="M69.67,3.68c.44.13.46,0-.06.41-.12-.09-.12,0,.08-.42Z"/><path d="M64.29,60.5c.16-.34.1-.29.23-.25C64.43,60.63,64.49,60.59,64.29,60.5Z"/><path d="M81.55,17.58c.18.33.18.26.08.34C81.38,17.62,81.39,17.7,81.55,17.58Z"/><path d="M5.9,12.17l.26.23s-.09.09-.1.08C5.73,12.26,5.8,12.28,5.9,12.17Z"/><path d="M67-.52c.27-.07.19-.1.3.11C67.09-.32,67.17-.31,67-.52Z"/></mask></defs><title>Asset 1</title><g id="Layer_2" data-name="Layer 2"><g id="Layer_1-2" data-name="Layer 1"><g class="cls-2"><path class="cls-3" d="M23.82,29.46a1.52,1.52,0,0,1,.82-.44,1.78,1.78,0,0,1,.92.16,1.46,1.46,0,0,1,.81.84,1.57,1.57,0,0,1-.05,1.2l-.83,2L20,30.83l.71-1.67a1.88,1.88,0,0,1,.89-1,1.38,1.38,0,0,1,1.19,0,1.73,1.73,0,0,1,.72.53A1.56,1.56,0,0,1,23.82,29.46Zm-1,1.18.1-.24a.68.68,0,0,0,0-.56.81.81,0,0,0-.43-.4.71.71,0,0,0-1.05.43L21.4,30Zm2.26,1,.14-.34a.65.65,0,0,0,0-.56.81.81,0,0,0-.45-.39.7.7,0,0,0-1,.43l-.11.25Z"/><path class="cls-3" d="M28.91,26.75l-1.62,2.5L22.3,26l1.51-2.33,1,.62L24,25.57l1,.65.7-1.08.93.6-.7,1.08,1.1.72.92-1.42Z"/><path class="cls-3" d="M27.88,21.46a1.4,1.4,0,0,0-1.1.33.55.55,0,0,0-.14.37.41.41,0,0,0,.12.33c.15.14.45.17.89.1a6.59,6.59,0,0,1,1-.12,1.83,1.83,0,0,1,.68.11A1.87,1.87,0,0,1,30,23a1.73,1.73,0,0,1,.15,2.54,2.15,2.15,0,0,1-1.19.64l-1.05-.94a1.66,1.66,0,0,0,1.28-.46.67.67,0,0,0,.19-.43.46.46,0,0,0-.16-.37,1,1,0,0,0-.83-.13,7.73,7.73,0,0,1-1.34.09,2.71,2.71,0,0,1-.68-.16,1.82,1.82,0,0,1-.55-.34,1.43,1.43,0,0,1-.52-1.11,1.75,1.75,0,0,1,.47-1.21,2.28,2.28,0,0,1,1-.63Z"/><path class="cls-3" d="M31.23,17.87l-.89.73,3,3.71-1,.82-3-3.71-.92.75-.73-.9L30.5,17Z"/><path class="cls-3" d="M40.23,18.72l-.41.69L39.06,19a2.09,2.09,0,0,1-.83.64,1.89,1.89,0,0,1-1.26.15,2.16,2.16,0,0,1-1-.64A5.28,5.28,0,0,1,35,17.67a3.88,3.88,0,0,1-.43-2.44A2.05,2.05,0,0,1,37,13.8a2.12,2.12,0,0,1,1.05.62,4.91,4.91,0,0,1,.89,1.46,3.89,3.89,0,0,1,.46,2.31Zm-2-1.09c-.17-.42-.31-.74-.4-.94a9.47,9.47,0,0,0-.59-1.2,1.06,1.06,0,0,0-.47-.43.65.65,0,0,0-.92.53,3,3,0,0,0,.38,1.4,8.52,8.52,0,0,0,.57,1.13,1,1,0,0,0,.44.37.58.58,0,0,0,.5,0A1,1,0,0,0,38,18.3l-1.09-.67.43-.69.88.7Z"/><path class="cls-3" d="M44.14,16a1.72,1.72,0,0,1-.21,1.39,2.27,2.27,0,0,1-2.75.59,1.88,1.88,0,0,1-.79-1.26l-.89-4.08,1.26-.27.85,3.87a1.21,1.21,0,0,0,.3.6.56.56,0,0,0,.5.12.5.5,0,0,0,.38-.31,1,1,0,0,0,0-.61L42,12.11l1.27-.27Z"/><path class="cls-3" d="M49.33,17.49l-1.25,0-.22-.92-1.57,0-.19.94-1.26,0,1.57-6,1.3,0Zm-1.67-1.86L47.07,13h0l-.54,2.62Z"/><path class="cls-3" d="M52.56,18l-2.75-.41.88-5.89,1.26.19-.7,4.73,1.49.22Z"/><path class="cls-3" d="M54.85,12.51l1.24.35-1.61,5.73-1.24-.35Z"/><path class="cls-3" d="M60.36,15.78l-1.06-.46-1.9,4.41-1.18-.51,1.89-4.4L57,14.35l.46-1.06,3.33,1.43Z"/><path class="cls-3" d="M65.34,17.55l-2.93,2L61,21.8l-1.07-.7,1.44-2.2.54-3.62L63,16l-.39,2,1.64-1.18Z"/><path class="cls-3" d="M34.16,62.11a1.58,1.58,0,0,1,.25.9,1.76,1.76,0,0,1-.36.87,1.45,1.45,0,0,1-1,.6,1.6,1.6,0,0,1-1.15-.3l-1.73-1.25,3.47-4.83,1.48,1.07a1.85,1.85,0,0,1,.78,1.08,1.39,1.39,0,0,1-.23,1.17A1.65,1.65,0,0,1,35,62,1.6,1.6,0,0,1,34.16,62.11Zm-2.38.79.3.21a.69.69,0,0,0,.54.13.79.79,0,0,0,.48-.35.71.71,0,0,0-.2-1.11l-.21-.15Zm1.44-2,.21.15a.65.65,0,0,0,.54.13.82.82,0,0,0,.29-1.46l-.13-.09Z"/><path class="cls-3" d="M37.32,67.16l-2.68-1.28,2.55-5.37L39.7,61.7l-.49,1-1.36-.65-.52,1.1,1.17.55-.48,1-1.16-.56-.57,1.19,1.53.73Z"/><path class="cls-3" d="M42.5,64.31a1.4,1.4,0,0,0-.77-.84.55.55,0,0,0-.4,0,.41.41,0,0,0-.25.25,1.15,1.15,0,0,0,.3.85,6.93,6.93,0,0,1,.55.87,2,2,0,0,1,.19.66,1.93,1.93,0,0,1-.08.75A1.76,1.76,0,0,1,41.2,68a1.73,1.73,0,0,1-1.38.12,2.07,2.07,0,0,1-1.09-.79L39.12,66a1.67,1.67,0,0,0,1,1,.69.69,0,0,0,.47,0,.51.51,0,0,0,.28-.3,1,1,0,0,0-.25-.81,7,7,0,0,1-.65-1.17,2.26,2.26,0,0,1-.15-.69,1.65,1.65,0,0,1,.07-.63,1.47,1.47,0,0,1,.77-1,1.78,1.78,0,0,1,1.31-.08,2.18,2.18,0,0,1,1,.62Z"/><path class="cls-3" d="M46.91,64.4l-1.15-.13L45.19,69l-1.27-.15.56-4.76L43.31,64l.13-1.15,3.6.43Z"/><path class="cls-3" d="M54.58,68.48l-.57.57-.63-.63a2.1,2.1,0,0,1-1,.43,2,2,0,0,1-1.26-.16,2.21,2.21,0,0,1-.86-.88,5.47,5.47,0,0,1-.5-1.61A3.88,3.88,0,0,1,50,63.73a2,2,0,0,1,2.64-.82,2.06,2.06,0,0,1,.87.86A5.05,5.05,0,0,1,54,65.4a3.9,3.9,0,0,1-.12,2.35Zm-1.69-1.54c-.06-.46-.12-.8-.15-1a10.41,10.41,0,0,0-.29-1.31,1.08,1.08,0,0,0-.35-.53.66.66,0,0,0-.53-.13.68.68,0,0,0-.49.42,2.94,2.94,0,0,0,0,1.46,7.62,7.62,0,0,0,.27,1.22,1.12,1.12,0,0,0,.34.48.65.65,0,0,0,.49.11,1.08,1.08,0,0,0,.28-.11l-.88-.92.57-.56.69.89Z"/><path class="cls-3" d="M59.16,64.89a1.73,1.73,0,0,1,0,1.41,1.94,1.94,0,0,1-1.12,1,2,2,0,0,1-1.5.06,1.88,1.88,0,0,1-1-1.12L54,62.32l1.2-.48,1.46,3.69a1.05,1.05,0,0,0,.39.54.57.57,0,0,0,.84-.32,1,1,0,0,0-.07-.61l-1.48-3.75,1.2-.47Z"/><path class="cls-3" d="M64.86,63.32l-1,.69-.67-.67-1.31.86.33.89-1.06.69-1.84-5.91,1.1-.71Zm-2.4-.69-1.87-1.89v0l.92,2.5Z"/><path class="cls-3" d="M68,60.39l-2,1.92L61.87,58l.92-.88,3.3,3.46,1.09-1Z"/><path class="cls-3" d="M64.27,55.56l.81-1,4.63,3.73-.81,1Z"/><path class="cls-3" d="M68.37,51.52l-.59,1L71.9,55l-.66,1.11-4.11-2.45-.61,1-1-.59,1.86-3.12Z"/><path class="cls-3" d="M68.87,47l2.65,2.4,2.47.92-.44,1.2-2.47-.92-3.65.29.48-1.3,2-.06-1.51-1.33Z"/><path class="cls-3" d="M12.67,38.56A34.93,34.93,0,0,1,75.08,19.22l5.29-1.64a6.82,6.82,0,0,0-5.5-5.34,6.78,6.78,0,0,1-5.16-4.18A6.8,6.8,0,0,0,61.9,4a6.81,6.81,0,0,1-6.37-1.89,6.8,6.8,0,0,0-8.79-.82,6.76,6.76,0,0,1-6.6.69h0a6.79,6.79,0,0,0-8.43,2.62h0a6.81,6.81,0,0,1-5.84,3.16h0a6.8,6.8,0,0,0-6.79,5.64h0a6.8,6.8,0,0,1-4.18,5.16,6.8,6.8,0,0,0-4.12,7.81,6.79,6.79,0,0,1-1.89,6.37h0A6.77,6.77,0,0,0,7.38,40.2ZM38.34,11.05a31.06,31.06,0,0,1,32.72,9.42l1.84-.57a32.8,32.8,0,0,0-58.06,18l1.84-.57A31.07,31.07,0,0,1,38.34,11.05ZM87,39.91h0a.35.35,0,0,1,0-.08l-4.48,1.39A34.93,34.93,0,0,1,19,60.87l-4.47,1.39v.09h0a6.78,6.78,0,0,0,5.64,6.79h0a6.83,6.83,0,0,1,5.16,4.19,6.79,6.79,0,0,0,7.81,4.11,6.8,6.8,0,0,1,6.36,1.89h0a6.8,6.8,0,0,0,8.79.81h0a6.83,6.83,0,0,1,6.61-.69h0a6.8,6.8,0,0,0,8.43-2.61h0a6.8,6.8,0,0,1,5.84-3.17A6.79,6.79,0,0,0,76,68a6.79,6.79,0,0,1,4.18-5.16,6.78,6.78,0,0,0,4.11-7.81,6.8,6.8,0,0,1,1.89-6.36A6.8,6.8,0,0,0,87,39.91ZM57.24,72A32.88,32.88,0,0,0,80.32,41.88l-1.81.56A31,31,0,0,1,23,59.65l-1.8.56A32.87,32.87,0,0,0,57.24,72Z"/><path class="cls-3" d="M11.73,60.43l-1.07-1.21a3.46,3.46,0,0,1-2.53,2.53q-4,1.23-5.57-3.91L.33,50.64A6.77,6.77,0,0,1,0,48.48a4.07,4.07,0,0,1,.35-1.59,3.65,3.65,0,0,1,.88-1.1,5.14,5.14,0,0,1,1.08-.73,10,10,0,0,1,1.14-.44,8.8,8.8,0,0,1,1.44-.32,3.88,3.88,0,0,1,1.18,0,4.49,4.49,0,0,1,1,.27,2.42,2.42,0,0,1,.79.54,5.92,5.92,0,0,1,.62.72,5.11,5.11,0,0,1,.52.92c.17.37.32.72.44,1s.25.72.39,1.17L6.28,50.06l-.41-1.31a2.27,2.27,0,0,0-.28-.64.77.77,0,0,0-.35-.29.69.69,0,0,0-.32-.06.82.82,0,0,0-.3.05,1.2,1.2,0,0,0-.48.24.84.84,0,0,0-.24.3,1.1,1.1,0,0,0,0,.5c0,.23.08.45.13.64s.15.51.28.93l2,6.42a4.55,4.55,0,0,0,.22.61,2.62,2.62,0,0,0,.28.51,1,1,0,0,0,.45.35,1,1,0,0,0,.59,0,.78.78,0,0,0,.61-.66,4.16,4.16,0,0,0-.26-1.46l-.59-1.92-1,.3-.89-2.87,4.44-1.38,3,9.69Z"/><path class="cls-3" d="M13.59,55,9.8,42.8l3.57-1.1,3.69,11.89a.45.45,0,0,0,0,.08c.06.18.1.32.14.42s.1.25.18.42a1.38,1.38,0,0,0,.27.38.92.92,0,0,0,.35.2.79.79,0,0,0,.48,0,.88.88,0,0,0,.36-.19.58.58,0,0,0,.18-.3,1.58,1.58,0,0,0,.07-.34,2.15,2.15,0,0,0,0-.4L19,53.47a3.56,3.56,0,0,0-.1-.36.24.24,0,0,0,0-.07l-3.68-11.9L18.74,40l3.78,12.22a5.11,5.11,0,0,1,0,3.75,4.58,4.58,0,0,1-3,2.21,4.63,4.63,0,0,1-3.77-.11A5.09,5.09,0,0,1,13.59,55Z"/><path class="cls-3" d="M27.63,37.28l7,16-3.55,1.1L30,52l-1.86.58.55,2.57-3.57,1.11L21.88,39.06Zm-1.77,4-.34.1,2,8.13,1.32-.41Z"/><path class="cls-3" d="M37.33,44.2l2.35,7.57L36,52.92,30.81,36.29l5.64-1.74A4.29,4.29,0,0,1,38,34.32a2.64,2.64,0,0,1,1.16.32,2.78,2.78,0,0,1,.88.84,6.5,6.5,0,0,1,.65,1.18c.17.41.35.91.54,1.51.1.31.17.57.22.77a5.4,5.4,0,0,1,.12.78,2.87,2.87,0,0,1,0,.85,2.47,2.47,0,0,1-.36.76,2.64,2.64,0,0,1-.73.72,2,2,0,0,1,1,.09,1.48,1.48,0,0,1,.67.48,3.35,3.35,0,0,1,.41.63,3.78,3.78,0,0,1,.28.7q1.27,4.13,1.9,6.27l-3.59,1.12-2-6.48a2.12,2.12,0,0,0-.27-.6A.57.57,0,0,0,38.4,44,1.35,1.35,0,0,0,38,44Zm-1.83-6,1,3.1.92-.28c.49-.15.57-.73.26-1.75-.21-.68-.44-1.08-.69-1.21a1.85,1.85,0,0,0-1.25.08Z"/><path class="cls-3" d="M48.35,30.86l7,16L51.79,48l-1-2.42-1.85.58.54,2.57-3.57,1.11L42.6,32.64Zm-1.78,4-.33.1,2,8.13,1.31-.41Z"/><path class="cls-3" d="M60.55,27.08,65.7,43.7l-3.59,1.12-4.42-7.75,2.58,8.32L56.68,46.5,51.53,29.87l3.78-1.17,4.15,7.43-2.46-8Z"/><path class="cls-3" d="M61.88,26.67l8-2.49,1,3.2-2.18.68,4.16,13.42-3.67,1.14L65.05,29.19l-2.18.68Z"/><path class="cls-3" d="M76.4,40.39,71.25,23.76l7.35-2.28,1,3.23L76,25.83l1,3.24L80.46,28l1,3.12L78,32.19,79.14,36,83,34.79,84,38Z"/><path class="cls-3" d="M85.61,37.53,80.46,20.91l7.35-2.28,1,3.22L85.2,23l1,3.25,3.47-1.07,1,3.12-3.47,1.07,1.17,3.79,3.86-1.2,1,3.25Z"/><polygon class="cls-3" points="42.04 23.38 43.37 24.82 45.29 24.49 44.34 26.19 45.24 27.92 43.33 27.54 41.96 28.94 41.73 27 39.98 26.13 41.76 25.32 42.04 23.38"/><polygon class="cls-3" points="47.87 22.91 48.81 23.93 50.18 23.7 49.5 24.9 50.14 26.13 48.78 25.86 47.82 26.85 47.66 25.48 46.41 24.86 47.67 24.28 47.87 22.91"/><polygon class="cls-3" points="36.96 26.29 37.9 27.31 39.27 27.08 38.59 28.28 39.24 29.51 37.88 29.24 36.91 30.23 36.75 28.86 35.51 28.24 36.76 27.66 36.96 26.29"/><polygon class="cls-3" points="52.45 56.96 51.12 55.53 49.2 55.86 50.15 54.15 49.24 52.42 51.16 52.8 52.52 51.41 52.75 53.35 54.5 54.21 52.73 55.03 52.45 56.96"/><polygon class="cls-3" points="46.62 57.43 45.67 56.41 44.31 56.65 44.99 55.44 44.34 54.21 45.7 54.48 46.67 53.49 46.83 54.87 48.07 55.48 46.81 56.06 46.62 57.43"/><polygon class="cls-3" points="57.52 54.05 56.58 53.03 55.22 53.27 55.89 52.06 55.25 50.83 56.61 51.1 57.58 50.11 57.74 51.49 58.98 52.1 57.72 52.68 57.52 54.05"/></g></g></g></svg>